<?xml version="1.0" encoding="us-ascii" standalone="no"?><svg xmlns="http://www.w3.org/2000/svg" xmlns:xlink="http://www.w3.org/1999/xlink" contentStyleType="text/css" height="757px" preserveAspectRatio="none" style="width:886px;height:757px;background:#FFFFFF;" version="1.1" viewBox="0 0 886 757" width="886px" zoomAndPan="magnify"><defs/><g><!--cluster User Aggregate--><g id="cluster_User Aggregate"><rect fill="none" height="246" rx="2.5" ry="2.5" style="stroke:#000000;stroke-width:1.5;" width="327" x="540" y="363"/><text fill="#000000" font-family="sans-serif" font-size="14" font-weight="bold" lengthAdjust="spacing" textLength="110" x="648.5" y="379.5332">User Aggregate</text></g><!--cluster Board Aggregate--><g id="cluster_Board Aggregate"><rect fill="none" height="170" rx="2.5" ry="2.5" style="stroke:#000000;stroke-width:1.5;" width="375" x="7" y="7"/><text fill="#000000" font-family="sans-serif" font-size="14" font-weight="bold" lengthAdjust="spacing" textLength="119" x="135" y="23.5332">Board Aggregate</text></g><!--cluster BoardPermission Aggregate--><g id="cluster_BoardPermission Aggregate"><rect fill="none" height="138" rx="2.5" ry="2.5" style="stroke:#000000;stroke-width:1.5;" width="658" x="222" y="201"/><text fill="#000000" font-family="sans-serif" font-size="14" font-weight="bold" lengthAdjust="spacing" textLength="197" x="452.5" y="217.5332">BoardPermission Aggregate</text></g><!--cluster Azure Fluid Relay Aggregate--><g id="cluster_Azure Fluid Relay Aggregate"><rect fill="none" height="118" rx="2.5" ry="2.5" style="stroke:#000000;stroke-width:1.5;" width="450" x="224" y="633"/><text fill="#000000" font-family="sans-serif" font-size="14" font-weight="bold" lengthAdjust="spacing" textLength="198" x="350" y="649.5332">Azure Fluid Relay Aggregate</text></g><!--class User--><g id="elem_User"><rect codeLine="17" fill="#D8F5FF" height="65.7969" id="User" rx="2.5" ry="2.5" style="stroke:#1E90FF;stroke-width:0.5;" width="71" x="556" y="399"/><ellipse cx="571" cy="427.8984" fill="#ADD1B2" rx="11" ry="11" style="stroke:#181818;stroke-width:1.0;"/><path d="M569.8594,428.6953 L569.8594,431.1953 L574.1875,431.1953 L574.1875,430.2734 Q574.1875,429.6641 574.4219,429.3984 Q574.6719,429.1328 575.0469,429.1328 Q575.4219,429.1328 575.6563,429.3984 Q575.8906,429.6641 575.8906,430.2734 L575.8906,432.8984 L567.8906,432.8984 Q567.2656,432.8984 567,432.6641 Q566.75,432.4297 566.75,432.0391 Q566.75,431.6641 567.0156,431.4297 Q567.2813,431.1953 567.8906,431.1953 L568.1563,431.1953 L568.1563,424.5391 L567.8906,424.5391 Q567.2656,424.5391 567,424.3047 Q566.75,424.0703 566.75,423.6797 Q566.75,423.3047 567,423.0703 Q567.2656,422.8359 567.8906,422.8359 L575.5156,422.8359 L575.5156,425.4297 Q575.5156,426.0391 575.2813,426.3047 Q575.0625,426.5547 574.6719,426.5547 Q574.2969,426.5547 574.0625,426.3047 Q573.8281,426.0391 573.8281,425.4297 L573.8281,424.5391 L569.8594,424.5391 L569.8594,426.9922 L571.3438,426.9922 Q571.3438,426.3359 571.4688,426.1484 Q571.7344,425.7422 572.2031,425.7422 Q572.5781,425.7422 572.8125,426.0078 Q573.0469,426.2578 573.0469,426.8672 L573.0469,428.8359 Q573.0469,429.3828 572.9219,429.5703 Q572.6563,429.9609 572.2031,429.9609 Q571.7344,429.9609 571.4688,429.5547 Q571.3438,429.3672 571.3438,428.6953 L569.8594,428.6953 Z " fill="#000000"/><text fill="#000000" font-family="sans-serif" font-size="12" font-style="italic" lengthAdjust="spacing" textLength="43" x="583" y="416.457">&#171;entity&#187;</text><text fill="#000000" font-family="sans-serif" font-size="12" font-style="italic" lengthAdjust="spacing" textLength="35" x="587" y="431.5508">&#171;root&#187;</text><text fill="#000000" font-family="sans-serif" font-size="14" lengthAdjust="spacing" textLength="29" x="590" y="448.7207">User</text><line style="stroke:#1E90FF;stroke-width:0.5;" x1="557" x2="626" y1="456.7969" y2="456.7969"/></g><!--entity UserName--><g id="elem_UserName"><rect fill="#F1F1F1" height="41.2188" rx="2.5" ry="2.5" style="stroke:#181818;stroke-width:0.5;" width="117" x="734" y="551.5"/><text fill="#000000" font-family="sans-serif" font-size="14" font-style="italic" lengthAdjust="spacing" textLength="97" x="744" y="569.0332">&#171;Value Object&#187;</text><text fill="#000000" font-family="sans-serif" font-size="14" lengthAdjust="spacing" textLength="65" x="760" y="586.6426">UserName</text></g><!--entity UserEmail--><g id="elem_UserEmail"><rect fill="#F1F1F1" height="41.2188" rx="2.5" ry="2.5" style="stroke:#181818;stroke-width:0.5;" width="117" x="734" y="475.5"/><text fill="#000000" font-family="sans-serif" font-size="14" font-style="italic" lengthAdjust="spacing" textLength="97" x="744" y="493.0332">&#171;Value Object&#187;</text><text fill="#000000" font-family="sans-serif" font-size="14" lengthAdjust="spacing" textLength="63" x="761" y="510.6426">UserEmail</text></g><!--entity UserPassword--><g id="elem_UserPassword"><rect fill="#F1F1F1" height="41.2188" rx="2.5" ry="2.5" style="stroke:#181818;stroke-width:0.5;" width="117" x="734" y="399.5"/><text fill="#000000" font-family="sans-serif" font-size="14" font-style="italic" lengthAdjust="spacing" textLength="97" x="744" y="417.0332">&#171;Value Object&#187;</text><text fill="#000000" font-family="sans-serif" font-size="14" lengthAdjust="spacing" textLength="90" x="747.5" y="434.6426">UserPassword</text></g><!--class Board--><g id="elem_Board"><rect codeLine="34" fill="#D8F5FF" height="65.7969" id="Board" rx="2.5" ry="2.5" style="stroke:#1E90FF;stroke-width:0.5;" width="71" x="23" y="95"/><ellipse cx="38" cy="123.8984" fill="#ADD1B2" rx="11" ry="11" style="stroke:#181818;stroke-width:1.0;"/><path d="M36.8594,124.6953 L36.8594,127.1953 L41.1875,127.1953 L41.1875,126.2734 Q41.1875,125.6641 41.4219,125.3984 Q41.6719,125.1328 42.0469,125.1328 Q42.4219,125.1328 42.6563,125.3984 Q42.8906,125.6641 42.8906,126.2734 L42.8906,128.8984 L34.8906,128.8984 Q34.2656,128.8984 34,128.6641 Q33.75,128.4297 33.75,128.0391 Q33.75,127.6641 34.0156,127.4297 Q34.2813,127.1953 34.8906,127.1953 L35.1563,127.1953 L35.1563,120.5391 L34.8906,120.5391 Q34.2656,120.5391 34,120.3047 Q33.75,120.0703 33.75,119.6797 Q33.75,119.3047 34,119.0703 Q34.2656,118.8359 34.8906,118.8359 L42.5156,118.8359 L42.5156,121.4297 Q42.5156,122.0391 42.2813,122.3047 Q42.0625,122.5547 41.6719,122.5547 Q41.2969,122.5547 41.0625,122.3047 Q40.8281,122.0391 40.8281,121.4297 L40.8281,120.5391 L36.8594,120.5391 L36.8594,122.9922 L38.3438,122.9922 Q38.3438,122.3359 38.4688,122.1484 Q38.7344,121.7422 39.2031,121.7422 Q39.5781,121.7422 39.8125,122.0078 Q40.0469,122.2578 40.0469,122.8672 L40.0469,124.8359 Q40.0469,125.3828 39.9219,125.5703 Q39.6563,125.9609 39.2031,125.9609 Q38.7344,125.9609 38.4688,125.5547 Q38.3438,125.3672 38.3438,124.6953 L36.8594,124.6953 Z " fill="#000000"/><text fill="#000000" font-family="sans-serif" font-size="12" font-style="italic" lengthAdjust="spacing" textLength="43" x="50" y="112.457">&#171;entity&#187;</text><text fill="#000000" font-family="sans-serif" font-size="12" font-style="italic" lengthAdjust="spacing" textLength="35" x="54" y="127.5508">&#171;root&#187;</text><text fill="#000000" font-family="sans-serif" font-size="14" lengthAdjust="spacing" textLength="38" x="52.5" y="144.7207">Board</text><line style="stroke:#1E90FF;stroke-width:0.5;" x1="24" x2="93" y1="152.7969" y2="152.7969"/></g><!--entity BoardTitle--><g id="elem_BoardTitle"><rect fill="#F1F1F1" height="41.2188" rx="2.5" ry="2.5" style="stroke:#181818;stroke-width:0.5;" width="117" x="249" y="119.5"/><text fill="#000000" font-family="sans-serif" font-size="14" font-style="italic" lengthAdjust="spacing" textLength="97" x="259" y="137.0332">&#171;Value Object&#187;</text><text fill="#000000" font-family="sans-serif" font-size="14" lengthAdjust="spacing" textLength="65" x="275" y="154.6426">BoardTitle</text></g><!--entity FluidId--><g id="elem_FluidId"><rect fill="#F1F1F1" height="41.2188" rx="2.5" ry="2.5" style="stroke:#181818;stroke-width:0.5;" width="117" x="249" y="43.5"/><text fill="#000000" font-family="sans-serif" font-size="14" font-style="italic" lengthAdjust="spacing" textLength="97" x="259" y="61.0332">&#171;Value Object&#187;</text><text fill="#000000" font-family="sans-serif" font-size="14" lengthAdjust="spacing" textLength="42" x="286.5" y="78.6426">FluidId</text></g><!--class BoardPermission--><g id="elem_BoardPermission"><rect codeLine="47" fill="#D8F5FF" height="65.7969" id="BoardPermission" rx="2.5" ry="2.5" style="stroke:#1E90FF;stroke-width:0.5;" width="139" x="238" y="247"/><ellipse cx="253" cy="275.8984" fill="#ADD1B2" rx="11" ry="11" style="stroke:#181818;stroke-width:1.0;"/><path d="M251.8594,276.6953 L251.8594,279.1953 L256.1875,279.1953 L256.1875,278.2734 Q256.1875,277.6641 256.4219,277.3984 Q256.6719,277.1328 257.0469,277.1328 Q257.4219,277.1328 257.6563,277.3984 Q257.8906,277.6641 257.8906,278.2734 L257.8906,280.8984 L249.8906,280.8984 Q249.2656,280.8984 249,280.6641 Q248.75,280.4297 248.75,280.0391 Q248.75,279.6641 249.0156,279.4297 Q249.2813,279.1953 249.8906,279.1953 L250.1563,279.1953 L250.1563,272.5391 L249.8906,272.5391 Q249.2656,272.5391 249,272.3047 Q248.75,272.0703 248.75,271.6797 Q248.75,271.3047 249,271.0703 Q249.2656,270.8359 249.8906,270.8359 L257.5156,270.8359 L257.5156,273.4297 Q257.5156,274.0391 257.2813,274.3047 Q257.0625,274.5547 256.6719,274.5547 Q256.2969,274.5547 256.0625,274.3047 Q255.8281,274.0391 255.8281,273.4297 L255.8281,272.5391 L251.8594,272.5391 L251.8594,274.9922 L253.3438,274.9922 Q253.3438,274.3359 253.4688,274.1484 Q253.7344,273.7422 254.2031,273.7422 Q254.5781,273.7422 254.8125,274.0078 Q255.0469,274.2578 255.0469,274.8672 L255.0469,276.8359 Q255.0469,277.3828 254.9219,277.5703 Q254.6563,277.9609 254.2031,277.9609 Q253.7344,277.9609 253.4688,277.5547 Q253.3438,277.3672 253.3438,276.6953 L251.8594,276.6953 Z " fill="#000000"/><text fill="#000000" font-family="sans-serif" font-size="12" font-style="italic" lengthAdjust="spacing" textLength="43" x="299" y="264.457">&#171;entity&#187;</text><text fill="#000000" font-family="sans-serif" font-size="12" font-style="italic" lengthAdjust="spacing" textLength="35" x="303" y="279.5508">&#171;root&#187;</text><text fill="#000000" font-family="sans-serif" font-size="14" lengthAdjust="spacing" textLength="107" x="267" y="296.7207">BoardPermission</text><line style="stroke:#1E90FF;stroke-width:0.5;" x1="239" x2="376" y1="304.7969" y2="304.7969"/></g><!--class AccessLevelType--><g id="elem_AccessLevelType"><rect codeLine="52" fill="#D8F5FF" height="85.9219" id="AccessLevelType" rx="2.5" ry="2.5" style="stroke:#1E90FF;stroke-width:0.5;" width="143" x="721" y="237"/><ellipse cx="736" cy="258.3516" fill="#EB937F" rx="11" ry="11" style="stroke:#181818;stroke-width:1.0;"/><path d="M734.8594,259.1484 L734.8594,261.6484 L739.1875,261.6484 L739.1875,260.7266 Q739.1875,260.1172 739.4219,259.8516 Q739.6719,259.5859 740.0469,259.5859 Q740.4219,259.5859 740.6563,259.8516 Q740.8906,260.1172 740.8906,260.7266 L740.8906,263.3516 L732.8906,263.3516 Q732.2656,263.3516 732,263.1172 Q731.75,262.8828 731.75,262.4922 Q731.75,262.1172 732.0156,261.8828 Q732.2813,261.6484 732.8906,261.6484 L733.1563,261.6484 L733.1563,254.9922 L732.8906,254.9922 Q732.2656,254.9922 732,254.7578 Q731.75,254.5234 731.75,254.1328 Q731.75,253.7578 732,253.5234 Q732.2656,253.2891 732.8906,253.2891 L740.5156,253.2891 L740.5156,255.8828 Q740.5156,256.4922 740.2813,256.7578 Q740.0625,257.0078 739.6719,257.0078 Q739.2969,257.0078 739.0625,256.7578 Q738.8281,256.4922 738.8281,255.8828 L738.8281,254.9922 L734.8594,254.9922 L734.8594,257.4453 L736.3438,257.4453 Q736.3438,256.7891 736.4688,256.6016 Q736.7344,256.1953 737.2031,256.1953 Q737.5781,256.1953 737.8125,256.4609 Q738.0469,256.7109 738.0469,257.3203 L738.0469,259.2891 Q738.0469,259.8359 737.9219,260.0234 Q737.6563,260.4141 737.2031,260.4141 Q736.7344,260.4141 736.4688,260.0078 Q736.3438,259.8203 736.3438,259.1484 L734.8594,259.1484 Z " fill="#000000"/><text fill="#000000" font-family="sans-serif" font-size="12" font-style="italic" lengthAdjust="spacing" textLength="85" x="763" y="254.457">&#171;Value Object&#187;</text><text fill="#000000" font-family="sans-serif" font-size="14" lengthAdjust="spacing" textLength="111" x="750" y="271.627">AccessLevelType</text><line style="stroke:#1E90FF;stroke-width:0.5;" x1="722" x2="863" y1="279.7031" y2="279.7031"/><text fill="#000000" font-family="sans-serif" font-size="14" lengthAdjust="spacing" textLength="48" x="727" y="298.2363">WRITE,</text><text fill="#000000" font-family="sans-serif" font-size="14" lengthAdjust="spacing" textLength="38" x="727" y="315.8457">READ</text></g><!--entity AccessLevel--><g id="elem_AccessLevel"><rect fill="#F1F1F1" height="41.2188" rx="2.5" ry="2.5" style="stroke:#181818;stroke-width:0.5;" width="117" x="533" y="259.5"/><text fill="#000000" font-family="sans-serif" font-size="14" font-style="italic" lengthAdjust="spacing" textLength="97" x="543" y="277.0332">&#171;Value Object&#187;</text><text fill="#000000" font-family="sans-serif" font-size="14" lengthAdjust="spacing" textLength="79" x="552" y="294.6426">AccessLevel</text></g><!--class AzureFluidRelay--><g id="elem_AzureFluidRelay"><rect codeLine="62" fill="#D8F5FF" height="65.7969" id="AzureFluidRelay" rx="2.5" ry="2.5" style="stroke:#1E90FF;stroke-width:0.5;" width="135" x="240" y="669"/><ellipse cx="255" cy="697.8984" fill="#ADD1B2" rx="11" ry="11" style="stroke:#181818;stroke-width:1.0;"/><path d="M253.8594,698.6953 L253.8594,701.1953 L258.1875,701.1953 L258.1875,700.2734 Q258.1875,699.6641 258.4219,699.3984 Q258.6719,699.1328 259.0469,699.1328 Q259.4219,699.1328 259.6563,699.3984 Q259.8906,699.6641 259.8906,700.2734 L259.8906,702.8984 L251.8906,702.8984 Q251.2656,702.8984 251,702.6641 Q250.75,702.4297 250.75,702.0391 Q250.75,701.6641 251.0156,701.4297 Q251.2813,701.1953 251.8906,701.1953 L252.1563,701.1953 L252.1563,694.5391 L251.8906,694.5391 Q251.2656,694.5391 251,694.3047 Q250.75,694.0703 250.75,693.6797 Q250.75,693.3047 251,693.0703 Q251.2656,692.8359 251.8906,692.8359 L259.5156,692.8359 L259.5156,695.4297 Q259.5156,696.0391 259.2813,696.3047 Q259.0625,696.5547 258.6719,696.5547 Q258.2969,696.5547 258.0625,696.3047 Q257.8281,696.0391 257.8281,695.4297 L257.8281,694.5391 L253.8594,694.5391 L253.8594,696.9922 L255.3438,696.9922 Q255.3438,696.3359 255.4688,696.1484 Q255.7344,695.7422 256.2031,695.7422 Q256.5781,695.7422 256.8125,696.0078 Q257.0469,696.2578 257.0469,696.8672 L257.0469,698.8359 Q257.0469,699.3828 256.9219,699.5703 Q256.6563,699.9609 256.2031,699.9609 Q255.7344,699.9609 255.4688,699.5547 Q255.3438,699.3672 255.3438,698.6953 L253.8594,698.6953 Z " fill="#000000"/><text fill="#000000" font-family="sans-serif" font-size="12" font-style="italic" lengthAdjust="spacing" textLength="43" x="299" y="686.457">&#171;entity&#187;</text><text fill="#000000" font-family="sans-serif" font-size="12" font-style="italic" lengthAdjust="spacing" textLength="35" x="303" y="701.5508">&#171;root&#187;</text><text fill="#000000" font-family="sans-serif" font-size="14" lengthAdjust="spacing" textLength="103" x="269" y="718.7207">AzureFluidRelay</text><line style="stroke:#1E90FF;stroke-width:0.5;" x1="241" x2="374" y1="726.7969" y2="726.7969"/></g><!--entity ConnectionConfig--><g id="elem_ConnectionConfig"><rect fill="#F1F1F1" height="41.2188" rx="2.5" ry="2.5" style="stroke:#181818;stroke-width:0.5;" width="133" x="525" y="681.5"/><text fill="#000000" font-family="sans-serif" font-size="14" font-style="italic" lengthAdjust="spacing" textLength="97" x="543" y="699.0332">&#171;Value Object&#187;</text><text fill="#000000" font-family="sans-serif" font-size="14" lengthAdjust="spacing" textLength="113" x="535" y="716.6426">ConnectionConfig</text></g><!--link User to UserName--><g id="link_User_UserName"><path codeLine="28" d="M627.23,462.33 C652.39,483.61 687.7,512.06 721,534 C730.29,540.12 735.3885,543.2644 745.2485,548.6244 " fill="none" id="User-to-UserName" style="stroke:#1E90FF;stroke-width:1.0;"/><polygon fill="#1E90FF" points="750.52,551.49,744.5232,543.6773,746.1271,549.102,740.7024,550.7059,750.52,551.49" style="stroke:#1E90FF;stroke-width:1.0;"/></g><!--link User to UserEmail--><g id="link_User_UserEmail"><path codeLine="29" d="M627.16,443.15 C656.56,452.6 693.6182,464.5228 728.1582,475.6328 " fill="none" id="User-to-UserEmail" style="stroke:#1E90FF;stroke-width:1.0;"/><polygon fill="#1E90FF" points="733.87,477.47,726.5271,470.9063,729.1102,475.939,724.0775,478.522,733.87,477.47" style="stroke:#1E90FF;stroke-width:1.0;"/></g><!--link User to UserPassword--><g id="link_User_UserPassword"><path codeLine="30" d="M627.16,429.91 C656.56,428.14 693.341,425.9224 727.881,423.8324 " fill="none" id="User-to-UserPassword" style="stroke:#1E90FF;stroke-width:1.0;"/><polygon fill="#1E90FF" points="733.87,423.47,724.6448,420.0209,728.8791,423.772,725.128,428.0063,733.87,423.47" style="stroke:#1E90FF;stroke-width:1.0;"/></g><!--link Board to BoardTitle--><g id="link_Board_BoardTitle"><path codeLine="42" d="M94.1,129.68 C134.2,131.63 194.8971,134.5789 242.8571,136.9089 " fill="none" id="Board-to-BoardTitle" style="stroke:#1E90FF;stroke-width:1.0;"/><polygon fill="#1E90FF" points="248.85,137.2,240.0547,132.768,243.8559,136.9574,239.6665,140.7586,248.85,137.2" style="stroke:#1E90FF;stroke-width:1.0;"/></g><!--link Board to FluidId--><g id="link_Board_FluidId"><path codeLine="43" d="M94.1,119.03 C134.2,108.64 195.0816,92.8642 243.0416,80.4442 " fill="none" id="Board-to-FluidId" style="stroke:#1E90FF;stroke-width:1.0;"/><polygon fill="#1E90FF" points="248.85,78.94,239.1346,77.324,244.0097,80.1935,241.1402,85.0685,248.85,78.94" style="stroke:#1E90FF;stroke-width:1.0;"/></g><!--link BoardPermission to AccessLevel--><g id="link_BoardPermission_AccessLevel"><path codeLine="57" d="M377.12,280 C424.89,280 481.87,280 527,280 " fill="none" id="BoardPermission-to-AccessLevel" style="stroke:#1E90FF;stroke-width:1.0;"/><polygon fill="#1E90FF" points="533,280,524,276,528,280,524,284,533,280" style="stroke:#1E90FF;stroke-width:1.0;"/></g><!--link AccessLevel to AccessLevelType--><g id="link_AccessLevel_AccessLevelType"><path codeLine="58" d="M650.06,280 C672.1,280 691.5,280 714.64,280 " fill="none" id="AccessLevel-to-AccessLevelType" style="stroke:#1E90FF;stroke-width:1.0;"/><polygon fill="#1E90FF" points="720.64,280,711.64,276,715.64,280,711.64,284,720.64,280" style="stroke:#1E90FF;stroke-width:1.0;"/></g><!--link AzureFluidRelay to ConnectionConfig--><g id="link_AzureFluidRelay_ConnectionConfig"><path codeLine="67" d="M375.33,702 C420.45,702 473.72,702 518.64,702 " fill="none" id="AzureFluidRelay-to-ConnectionConfig" style="stroke:#1E90FF;stroke-width:1.0;"/><polygon fill="#1E90FF" points="524.64,702,515.64,698,519.64,702,515.64,706,524.64,702" style="stroke:#1E90FF;stroke-width:1.0;"/></g><!--link Board to User--><g id="link_Board_User"><path codeLine="70" d="M71.98,161.04 C93,211.91 140.52,308.57 214,357 C322.93,428.8 479.4109,434.7548 549.8509,433.5248 " fill="none" id="Board-to-User" style="stroke:#1E90FF;stroke-width:1.0;"/><polygon fill="#1E90FF" points="555.85,433.42,546.7815,429.5777,550.8508,433.5073,546.9212,437.5765,555.85,433.42" style="stroke:#1E90FF;stroke-width:1.0;"/><text fill="#000000" font-family="sans-serif" font-size="13" lengthAdjust="spacing" textLength="60" x="277.5" y="353.4951">belongs to</text><text fill="#000000" font-family="sans-serif" font-size="13" lengthAdjust="spacing" textLength="7" x="540.7753" y="448.9152">1</text></g><!--link Board to BoardPermission--><g id="link_Board_BoardPermission"><path codeLine="71" d="M94.1,149.29 C135.26,174.62 199.3298,214.0558 247.5198,243.7058 " fill="none" id="Board-to-BoardPermission" style="stroke:#1E90FF;stroke-width:1.0;"/><polygon fill="#1E90FF" points="252.63,246.85,247.0608,238.7269,248.3715,244.2299,242.8686,245.5405,252.63,246.85" style="stroke:#1E90FF;stroke-width:1.0;"/><text fill="#000000" font-family="sans-serif" font-size="13" lengthAdjust="spacing" textLength="21" x="154.5" y="165.4951">has</text><text fill="#000000" font-family="sans-serif" font-size="13" lengthAdjust="spacing" textLength="5" x="235.7974" y="235.9151">*</text></g><!--link Board to AzureFluidRelay--><g id="link_Board_AzureFluidRelay"><path codeLine="72" d="M61.08,161.42 C65.03,222.86 78.58,356.82 124,459 C161.29,542.89 228.0779,620.6401 269.6779,664.6401 " fill="none" id="Board-to-AzureFluidRelay" style="stroke:#1E90FF;stroke-width:1.0;"/><polygon fill="#1E90FF" points="273.8,669,270.5235,659.7121,270.3649,665.3668,264.7103,665.2082,273.8,669" style="stroke:#1E90FF;stroke-width:1.0;"/><text fill="#000000" font-family="sans-serif" font-size="13" lengthAdjust="spacing" textLength="80" x="125" y="455.4951">stores data to</text><text fill="#000000" font-family="sans-serif" font-size="13" lengthAdjust="spacing" textLength="7" x="259.1275" y="658.0961">1</text></g><!--link BoardPermission to User--><g id="link_BoardPermission_User"><path codeLine="73" d="M370.04,313.17 C426.92,343.83 504.1379,385.454 550.4079,410.384 " fill="none" id="BoardPermission-to-User" style="stroke:#1E90FF;stroke-width:1.0;"/><polygon fill="#1E90FF" points="555.69,413.23,549.6642,405.4397,551.2883,410.8584,545.8696,412.4825,555.69,413.23" style="stroke:#1E90FF;stroke-width:1.0;"/><text fill="#000000" font-family="sans-serif" font-size="13" lengthAdjust="spacing" textLength="86" x="408" y="330.4951">corresponds to</text><text fill="#000000" font-family="sans-serif" font-size="13" lengthAdjust="spacing" textLength="7" x="540.9508" y="424.6594">1</text></g><!--SRC=[ZPHBQ-Cm58Nt_XKNpwvCeLqC324Od1SOGXlIpCnQiMuKJMKfI79BElI_ZnvjwigDMwzYtOzppZrslESKeK6xLzHa0dSMh0BDsTu2vHfhovNCCdFFvO5eqa0jY36bjPflMujLhUGTVqAuwZ7mBmDtBVaEbrpYH6cAUgg4qZ1JbA6UY1RV8wI-PrgraaQiNAsMrRJSLBStWKldtsO_5pyMYp0hjLQF7wgVCNxk1ZuuPSBmpXu5Wb-QI2OmorxE8VzbqELXJ2CZ5lEu6ahBxH72R3oETqKn7ckbR55aWQc9fe6u8GqwwZTnvd2x_UjCYYBgF2Vel25SV95TkQOVtOR3U8XuULcSalHFWsd_-5NVztLgOwAy_Pawud2mZu1ik1LVQMGXMawhJnQCfZxqctOoUD7fBx92tN1Zt7i-k5876rokh6iqPeaF-CapHDasNNfpF9phmrz_rjLc_lrqkvwNiru3dOn-vOvu_9DqeYLpR_wkclAfrHXBWpKASZnNJW035x71SgPAolXDSRzsd0qtb4hxpAc23_tsaFFhFBw_8zYYK98PzpdhpY_ojAaHx8b991BZ4HYhD1gWn9AJO5Bsg_K8QgKTV52I1lV_]--></g></svg>