<?xml version="1.0" encoding="us-ascii" standalone="no"?><svg xmlns="http://www.w3.org/2000/svg" xmlns:xlink="http://www.w3.org/1999/xlink" contentStyleType="text/css" height="662px" preserveAspectRatio="none" style="width:1069px;height:662px;background:#FFFFFF;" version="1.1" viewBox="0 0 1069 662" width="1069px" zoomAndPan="magnify"><defs/><g><rect fill="#FFFFFF" height="442.7578" style="stroke:#181818;stroke-width:1.0;" width="10" x="53.5" y="110.2188"/><rect fill="#FFFFFF" height="405.4063" style="stroke:#181818;stroke-width:1.0;" width="10" x="276.5" y="132.5703"/><rect fill="#FFFFFF" height="344.7031" style="stroke:#181818;stroke-width:1.0;" width="10" x="547.5" y="162.9219"/><rect fill="#FFFFFF" height="284" style="stroke:#181818;stroke-width:1.0;" width="10" x="785.5" y="193.2734"/><rect fill="#FFFFFF" height="91.0547" style="stroke:#181818;stroke-width:1.0;" width="10" x="914.5" y="223.625"/><rect fill="none" height="216.2969" style="stroke:#000000;stroke-width:1.5;" width="840.5" x="10" y="329.6797"/><line style="stroke:#181818;stroke-width:0.5;stroke-dasharray:5.0,5.0;" x1="58" x2="58" y1="100.2188" y2="562.9766"/><line style="stroke:#181818;stroke-width:0.5;stroke-dasharray:5.0,5.0;" x1="281.5" x2="281.5" y1="100.2188" y2="562.9766"/><line style="stroke:#181818;stroke-width:0.5;stroke-dasharray:5.0,5.0;" x1="552.5" x2="552.5" y1="100.2188" y2="562.9766"/><line style="stroke:#181818;stroke-width:0.5;stroke-dasharray:5.0,5.0;" x1="790.5" x2="790.5" y1="100.2188" y2="562.9766"/><line style="stroke:#181818;stroke-width:0.5;stroke-dasharray:5.0,5.0;" x1="919.5" x2="919.5" y1="100.2188" y2="562.9766"/><text fill="#000000" font-family="sans-serif" font-size="14" font-style="italic" lengthAdjust="spacing" textLength="71" x="20" y="79.5332">&#171;interface&#187;</text><text fill="#000000" font-family="sans-serif" font-size="14" lengthAdjust="spacing" textLength="29" x="41" y="97.1426">User</text><ellipse cx="58.5" cy="13.5" fill="#E2E2F0" rx="8" ry="8" style="stroke:#181818;stroke-width:0.5;"/><path d="M58.5,21.5 L58.5,48.5 M45.5,29.5 L71.5,29.5 M58.5,48.5 L45.5,63.5 M58.5,48.5 L71.5,63.5 " fill="none" style="stroke:#181818;stroke-width:0.5;"/><text fill="#000000" font-family="sans-serif" font-size="14" font-style="italic" lengthAdjust="spacing" textLength="71" x="20" y="576.5098">&#171;interface&#187;</text><text fill="#000000" font-family="sans-serif" font-size="14" lengthAdjust="spacing" textLength="29" x="41" y="594.1191">User</text><ellipse cx="58.5" cy="605.6953" fill="#E2E2F0" rx="8" ry="8" style="stroke:#181818;stroke-width:0.5;"/><path d="M58.5,613.6953 L58.5,640.6953 M45.5,621.6953 L71.5,621.6953 M58.5,640.6953 L45.5,655.6953 M58.5,640.6953 L71.5,655.6953 " fill="none" style="stroke:#181818;stroke-width:0.5;"/><rect fill="#E2E2F0" height="49.2188" rx="2.5" ry="2.5" style="stroke:#181818;stroke-width:0.5;" width="100" x="231.5" y="50"/><text fill="#000000" font-family="sans-serif" font-size="14" font-style="italic" lengthAdjust="spacing" textLength="86" x="238.5" y="71.5332">&#171;component&#187;</text><text fill="#000000" font-family="sans-serif" font-size="14" lengthAdjust="spacing" textLength="29" x="267" y="89.1426">View</text><rect fill="#E2E2F0" height="49.2188" rx="2.5" ry="2.5" style="stroke:#181818;stroke-width:0.5;" width="100" x="231.5" y="561.9766"/><text fill="#000000" font-family="sans-serif" font-size="14" font-style="italic" lengthAdjust="spacing" textLength="86" x="238.5" y="583.5098">&#171;component&#187;</text><text fill="#000000" font-family="sans-serif" font-size="14" lengthAdjust="spacing" textLength="29" x="267" y="601.1191">View</text><rect fill="#E2E2F0" height="49.2188" rx="2.5" ry="2.5" style="stroke:#181818;stroke-width:0.5;" width="100" x="502.5" y="50"/><text fill="#000000" font-family="sans-serif" font-size="14" font-style="italic" lengthAdjust="spacing" textLength="86" x="509.5" y="71.5332">&#171;component&#187;</text><text fill="#000000" font-family="sans-serif" font-size="14" lengthAdjust="spacing" textLength="73" x="516" y="89.1426">Component</text><rect fill="#E2E2F0" height="49.2188" rx="2.5" ry="2.5" style="stroke:#181818;stroke-width:0.5;" width="100" x="502.5" y="561.9766"/><text fill="#000000" font-family="sans-serif" font-size="14" font-style="italic" lengthAdjust="spacing" textLength="86" x="509.5" y="583.5098">&#171;component&#187;</text><text fill="#000000" font-family="sans-serif" font-size="14" lengthAdjust="spacing" textLength="73" x="516" y="601.1191">Component</text><rect fill="#E2E2F0" height="49.2188" rx="2.5" ry="2.5" style="stroke:#181818;stroke-width:0.5;" width="100" x="740.5" y="50"/><text fill="#000000" font-family="sans-serif" font-size="14" font-style="italic" lengthAdjust="spacing" textLength="86" x="747.5" y="71.5332">&#171;component&#187;</text><text fill="#000000" font-family="sans-serif" font-size="14" lengthAdjust="spacing" textLength="47" x="767" y="89.1426">Service</text><rect fill="#E2E2F0" height="49.2188" rx="2.5" ry="2.5" style="stroke:#181818;stroke-width:0.5;" width="100" x="740.5" y="561.9766"/><text fill="#000000" font-family="sans-serif" font-size="14" font-style="italic" lengthAdjust="spacing" textLength="86" x="747.5" y="583.5098">&#171;component&#187;</text><text fill="#000000" font-family="sans-serif" font-size="14" lengthAdjust="spacing" textLength="47" x="767" y="601.1191">Service</text><rect fill="#E2E2F0" height="49.2188" rx="2.5" ry="2.5" style="stroke:#181818;stroke-width:0.5;" width="100" x="869.5" y="50"/><text fill="#000000" font-family="sans-serif" font-size="14" font-style="italic" lengthAdjust="spacing" textLength="86" x="876.5" y="71.5332">&#171;component&#187;</text><text fill="#000000" font-family="sans-serif" font-size="14" lengthAdjust="spacing" textLength="74" x="882.5" y="89.1426">HTTPDriver</text><rect fill="#E2E2F0" height="49.2188" rx="2.5" ry="2.5" style="stroke:#181818;stroke-width:0.5;" width="100" x="869.5" y="561.9766"/><text fill="#000000" font-family="sans-serif" font-size="14" font-style="italic" lengthAdjust="spacing" textLength="86" x="876.5" y="583.5098">&#171;component&#187;</text><text fill="#000000" font-family="sans-serif" font-size="14" lengthAdjust="spacing" textLength="74" x="882.5" y="601.1191">HTTPDriver</text><rect fill="#FFFFFF" height="442.7578" style="stroke:#181818;stroke-width:1.0;" width="10" x="53.5" y="110.2188"/><rect fill="#FFFFFF" height="405.4063" style="stroke:#181818;stroke-width:1.0;" width="10" x="276.5" y="132.5703"/><rect fill="#FFFFFF" height="344.7031" style="stroke:#181818;stroke-width:1.0;" width="10" x="547.5" y="162.9219"/><rect fill="#FFFFFF" height="284" style="stroke:#181818;stroke-width:1.0;" width="10" x="785.5" y="193.2734"/><rect fill="#FFFFFF" height="91.0547" style="stroke:#181818;stroke-width:1.0;" width="10" x="914.5" y="223.625"/><polygon fill="#181818" points="264.5,128.5703,274.5,132.5703,264.5,136.5703,268.5,132.5703" style="stroke:#181818;stroke-width:1.0;"/><line style="stroke:#181818;stroke-width:1.0;" x1="63.5" x2="270.5" y1="132.5703" y2="132.5703"/><text fill="#000000" font-family="sans-serif" font-size="13" font-weight="bold" lengthAdjust="spacing" textLength="7" x="70.5" y="127.7139">1</text><text fill="#000000" font-family="sans-serif" font-size="13" lengthAdjust="spacing" textLength="183" x="81.5" y="127.7139">Fills and submits the {resource}</text><polygon fill="#181818" points="535.5,158.9219,545.5,162.9219,535.5,166.9219,539.5,162.9219" style="stroke:#181818;stroke-width:1.0;"/><line style="stroke:#181818;stroke-width:1.0;" x1="286.5" x2="541.5" y1="162.9219" y2="162.9219"/><text fill="#000000" font-family="sans-serif" font-size="13" font-weight="bold" lengthAdjust="spacing" textLength="7" x="293.5" y="158.0654">2</text><text fill="#000000" font-family="sans-serif" font-size="13" lengthAdjust="spacing" textLength="159" x="304.5" y="158.0654">send {resource} create data</text><polygon fill="#181818" points="773.5,189.2734,783.5,193.2734,773.5,197.2734,777.5,193.2734" style="stroke:#181818;stroke-width:1.0;"/><line style="stroke:#181818;stroke-width:1.0;" x1="557.5" x2="779.5" y1="193.2734" y2="193.2734"/><text fill="#000000" font-family="sans-serif" font-size="13" font-weight="bold" lengthAdjust="spacing" textLength="7" x="564.5" y="188.417">3</text><text fill="#000000" font-family="sans-serif" font-size="13" lengthAdjust="spacing" textLength="198" x="575.5" y="188.417">requests the creation of {resource}</text><polygon fill="#181818" points="902.5,219.625,912.5,223.625,902.5,227.625,906.5,223.625" style="stroke:#181818;stroke-width:1.0;"/><line style="stroke:#181818;stroke-width:1.0;" x1="795.5" x2="908.5" y1="223.625" y2="223.625"/><text fill="#000000" font-family="sans-serif" font-size="13" font-weight="bold" lengthAdjust="spacing" textLength="7" x="802.5" y="218.7686">4</text><text fill="#000000" font-family="sans-serif" font-size="13" lengthAdjust="spacing" textLength="89" x="813.5" y="218.7686">requests POST</text><polygon fill="#181818" points="1051.5,249.9766,1061.5,253.9766,1051.5,257.9766,1055.5,253.9766" style="stroke:#181818;stroke-width:1.0;"/><line style="stroke:#181818;stroke-width:1.0;" x1="924.5" x2="1057.5" y1="253.9766" y2="253.9766"/><text fill="#000000" font-family="sans-serif" font-size="13" font-weight="bold" lengthAdjust="spacing" textLength="7" x="931.5" y="249.1201">5</text><text fill="#000000" font-family="sans-serif" font-size="13" lengthAdjust="spacing" textLength="104" x="942.5" y="249.1201">POST {resources}</text><polygon fill="#181818" points="935.5,280.3281,925.5,284.3281,935.5,288.3281,931.5,284.3281" style="stroke:#181818;stroke-width:1.0;"/><line style="stroke:#181818;stroke-width:1.0;stroke-dasharray:2.0,2.0;" x1="929.5" x2="1062.5" y1="284.3281" y2="284.3281"/><text fill="#000000" font-family="sans-serif" font-size="13" font-weight="bold" lengthAdjust="spacing" textLength="7" x="941.5" y="279.4717">6</text><text fill="#000000" font-family="sans-serif" font-size="13" lengthAdjust="spacing" textLength="89" x="952.5" y="279.4717">HTTP response</text><polygon fill="#181818" points="806.5,310.6797,796.5,314.6797,806.5,318.6797,802.5,314.6797" style="stroke:#181818;stroke-width:1.0;"/><line style="stroke:#181818;stroke-width:1.0;stroke-dasharray:2.0,2.0;" x1="800.5" x2="918.5" y1="314.6797" y2="314.6797"/><text fill="#000000" font-family="sans-serif" font-size="13" font-weight="bold" lengthAdjust="spacing" textLength="7" x="812.5" y="309.8232">7</text><text fill="#000000" font-family="sans-serif" font-size="13" lengthAdjust="spacing" textLength="53" x="823.5" y="309.8232">response</text><path d="M10,329.6797 L71,329.6797 L71,338.0313 L61,348.0313 L10,348.0313 L10,329.6797 " fill="#EEEEEE" style="stroke:#000000;stroke-width:1.5;"/><rect fill="none" height="216.2969" style="stroke:#000000;stroke-width:1.5;" width="840.5" x="10" y="329.6797"/><text fill="#000000" font-family="sans-serif" font-size="13" font-weight="bold" lengthAdjust="spacing" textLength="16" x="25" y="344.1748">alt</text><a href="successfull" target="_top" title="successfull" xlink:actuate="onRequest" xlink:href="successfull" xlink:show="new" xlink:title="successfull" xlink:type="simple"><text fill="#0000FF" font-family="sans-serif" font-size="11" font-weight="bold" lengthAdjust="spacing" text-decoration="underline" textLength="64" x="86" y="343.0986">successfull</text></a><polygon fill="#181818" points="568.5,366.3828,558.5,370.3828,568.5,374.3828,564.5,370.3828" style="stroke:#181818;stroke-width:1.0;"/><line style="stroke:#181818;stroke-width:1.0;stroke-dasharray:2.0,2.0;" x1="562.5" x2="784.5" y1="370.3828" y2="370.3828"/><text fill="#000000" font-family="sans-serif" font-size="13" font-weight="bold" lengthAdjust="spacing" textLength="7" x="574.5" y="365.5264">8</text><text fill="#000000" font-family="sans-serif" font-size="13" lengthAdjust="spacing" textLength="53" x="585.5" y="365.5264">response</text><polygon fill="#181818" points="297.5,396.7344,287.5,400.7344,297.5,404.7344,293.5,400.7344" style="stroke:#181818;stroke-width:1.0;"/><line style="stroke:#181818;stroke-width:1.0;stroke-dasharray:2.0,2.0;" x1="291.5" x2="546.5" y1="400.7344" y2="400.7344"/><text fill="#000000" font-family="sans-serif" font-size="13" font-weight="bold" lengthAdjust="spacing" textLength="7" x="303.5" y="395.8779">9</text><text fill="#000000" font-family="sans-serif" font-size="13" lengthAdjust="spacing" textLength="226" x="314.5" y="395.8779">informs that the {resource} was created</text><polygon fill="#181818" points="74.5,427.0859,64.5,431.0859,74.5,435.0859,70.5,431.0859" style="stroke:#181818;stroke-width:1.0;"/><line style="stroke:#181818;stroke-width:1.0;stroke-dasharray:2.0,2.0;" x1="68.5" x2="275.5" y1="431.0859" y2="431.0859"/><text fill="#000000" font-family="sans-serif" font-size="13" font-weight="bold" lengthAdjust="spacing" textLength="14" x="80.5" y="426.2295">10</text><text fill="#000000" font-family="sans-serif" font-size="13" lengthAdjust="spacing" textLength="101" x="98.5" y="426.2295">displays success</text><line style="stroke:#000000;stroke-width:1.0;stroke-dasharray:2.0,2.0;" x1="10" x2="850.5" y1="440.0859" y2="440.0859"/><a href="unsuccessfull" target="_top" title="unsuccessfull" xlink:actuate="onRequest" xlink:href="unsuccessfull" xlink:show="new" xlink:title="unsuccessfull" xlink:type="simple"><text fill="#0000FF" font-family="sans-serif" font-size="11" font-weight="bold" lengthAdjust="spacing" text-decoration="underline" textLength="78" x="15" y="451.5049">unsuccessfull</text></a><polygon fill="#181818" points="568.5,473.2734,558.5,477.2734,568.5,481.2734,564.5,477.2734" style="stroke:#181818;stroke-width:1.0;"/><line style="stroke:#181818;stroke-width:1.0;stroke-dasharray:2.0,2.0;" x1="562.5" x2="789.5" y1="477.2734" y2="477.2734"/><text fill="#000000" font-family="sans-serif" font-size="13" font-weight="bold" lengthAdjust="spacing" textLength="14" x="574.5" y="472.417">11</text><text fill="#000000" font-family="sans-serif" font-size="13" lengthAdjust="spacing" textLength="170" x="592.5" y="472.417">informs that an error occurred</text><polygon fill="#181818" points="297.5,503.625,287.5,507.625,297.5,511.625,293.5,507.625" style="stroke:#181818;stroke-width:1.0;"/><line style="stroke:#181818;stroke-width:1.0;stroke-dasharray:2.0,2.0;" x1="291.5" x2="551.5" y1="507.625" y2="507.625"/><text fill="#000000" font-family="sans-serif" font-size="13" font-weight="bold" lengthAdjust="spacing" textLength="14" x="303.5" y="502.7686">12</text><text fill="#000000" font-family="sans-serif" font-size="13" lengthAdjust="spacing" textLength="170" x="321.5" y="502.7686">informs that an error occurred</text><polygon fill="#181818" points="74.5,533.9766,64.5,537.9766,74.5,541.9766,70.5,537.9766" style="stroke:#181818;stroke-width:1.0;"/><line style="stroke:#181818;stroke-width:1.0;stroke-dasharray:2.0,2.0;" x1="68.5" x2="280.5" y1="537.9766" y2="537.9766"/><text fill="#000000" font-family="sans-serif" font-size="13" font-weight="bold" lengthAdjust="spacing" textLength="14" x="80.5" y="533.1201">13</text><text fill="#000000" font-family="sans-serif" font-size="13" lengthAdjust="spacing" textLength="71" x="98.5" y="533.1201">display error</text><!--SRC=[XL91ReCm4BplA_O3-G12N5fLlJLIqrwY7XopA9R0JjSsKLNbx_LY2115wSKWxypix7YL3exnmnEZyXZJjooD3SIDqbHL22V5mMXpKZRWfw6pmFhqBKljkfEpP4DLhL1Fqxr01RI2hXNVYNkZIP0-_pu0l-vsssSsVVPw3E5M6LGCpiRkG0nA1zEhGCDC07BYfXgi5_XYsjQZiZNwUEXCy1YEXBzCtaNMT86PBWG0EOKkxOfaDJ5dD6ecWTOgg0LJi01o2dCS3mja-exanvu3rJYBhhdVV-G1J099IqPV2ctVtdSBYfG11b029w3KPtL_6OlbPYDLYJLf-PIZfuatEouMjPfkcgWsuDv7dLHz4zlsQxPvJMkcvookhs1iuxYJ75IuUG0yo-uCiTPJ-eadhrXWRVofLJzfPN9Z06ezuJxQVvoi6YgBn9oMtsaTcQNFOhnhx8yyFvR8xt_VU-Qju7dHqcQjRlFs_W40]--></g></svg>