<?xml version="1.0" encoding="us-ascii" standalone="no"?><svg xmlns="http://www.w3.org/2000/svg" xmlns:xlink="http://www.w3.org/1999/xlink" contentStyleType="text/css" height="461px" preserveAspectRatio="none" style="width:577px;height:461px;background:#FFFFFF;" version="1.1" viewBox="0 0 577 461" width="577px" zoomAndPan="magnify"><defs/><g><rect fill="#FFFFFF" height="254.6484" style="stroke:#181818;stroke-width:1.0;" width="10" x="194.5" y="114.9609"/><rect fill="#FFFFFF" height="91.0547" style="stroke:#181818;stroke-width:1.0;" width="10" x="400.5" y="145.3125"/><rect fill="#FFFFFF" height="30.3516" style="stroke:#181818;stroke-width:1.0;" width="10" x="505" y="175.6641"/><rect fill="none" height="111.2422" style="stroke:#000000;stroke-width:1.5;" width="224.5" x="10" y="251.3672"/><line style="stroke:#181818;stroke-width:0.5;stroke-dasharray:5.0,5.0;" x1="37" x2="37" y1="82.6094" y2="379.6094"/><line style="stroke:#181818;stroke-width:0.5;stroke-dasharray:5.0,5.0;" x1="199.5" x2="199.5" y1="82.6094" y2="379.6094"/><line style="stroke:#181818;stroke-width:0.5;stroke-dasharray:5.0,5.0;" x1="405.5" x2="405.5" y1="82.6094" y2="379.6094"/><line style="stroke:#181818;stroke-width:0.5;stroke-dasharray:5.0,5.0;" x1="509.5" x2="509.5" y1="82.6094" y2="379.6094"/><text fill="#000000" font-family="sans-serif" font-size="14" lengthAdjust="spacing" textLength="29" x="20" y="79.5332">User</text><ellipse cx="37.5" cy="13.5" fill="#E2E2F0" rx="8" ry="8" style="stroke:#181818;stroke-width:0.5;"/><path d="M37.5,21.5 L37.5,48.5 M24.5,29.5 L50.5,29.5 M37.5,48.5 L24.5,63.5 M37.5,48.5 L50.5,63.5 " fill="none" style="stroke:#181818;stroke-width:0.5;"/><text fill="#000000" font-family="sans-serif" font-size="14" lengthAdjust="spacing" textLength="29" x="20" y="393.1426">User</text><ellipse cx="37.5" cy="404.7188" fill="#E2E2F0" rx="8" ry="8" style="stroke:#181818;stroke-width:0.5;"/><path d="M37.5,412.7188 L37.5,439.7188 M24.5,420.7188 L50.5,420.7188 M37.5,439.7188 L24.5,454.7188 M37.5,439.7188 L50.5,454.7188 " fill="none" style="stroke:#181818;stroke-width:0.5;"/><rect fill="#E2E2F0" height="31.6094" rx="2.5" ry="2.5" style="stroke:#181818;stroke-width:0.5;" width="50" x="174.5" y="50"/><text fill="#000000" font-family="sans-serif" font-size="14" lengthAdjust="spacing" textLength="36" x="181.5" y="71.5332">Client</text><rect fill="#E2E2F0" height="31.6094" rx="2.5" ry="2.5" style="stroke:#181818;stroke-width:0.5;" width="50" x="174.5" y="378.6094"/><text fill="#000000" font-family="sans-serif" font-size="14" lengthAdjust="spacing" textLength="36" x="181.5" y="400.1426">Client</text><rect fill="#E2E2F0" height="31.6094" rx="2.5" ry="2.5" style="stroke:#181818;stroke-width:0.5;" width="56" x="377.5" y="50"/><text fill="#000000" font-family="sans-serif" font-size="14" lengthAdjust="spacing" textLength="42" x="384.5" y="71.5332">Server</text><rect fill="#E2E2F0" height="31.6094" rx="2.5" ry="2.5" style="stroke:#181818;stroke-width:0.5;" width="56" x="377.5" y="378.6094"/><text fill="#000000" font-family="sans-serif" font-size="14" lengthAdjust="spacing" textLength="42" x="384.5" y="400.1426">Server</text><text fill="#000000" font-family="sans-serif" font-size="14" lengthAdjust="spacing" textLength="127" x="443.5" y="79.5332">Database Container</text><path d="M492,29 C492,19 510,19 510,19 C510,19 528,19 528,29 L528,55 C528,65 510,65 510,65 C510,65 492,65 492,55 L492,29 " fill="#E2E2F0" style="stroke:#181818;stroke-width:1.5;"/><path d="M492,29 C492,39 510,39 510,39 C510,39 528,39 528,29 " fill="none" style="stroke:#181818;stroke-width:1.5;"/><text fill="#000000" font-family="sans-serif" font-size="14" lengthAdjust="spacing" textLength="127" x="443.5" y="393.1426">Database Container</text><path d="M492,406.2188 C492,396.2188 510,396.2188 510,396.2188 C510,396.2188 528,396.2188 528,406.2188 L528,432.2188 C528,442.2188 510,442.2188 510,442.2188 C510,442.2188 492,442.2188 492,432.2188 L492,406.2188 " fill="#E2E2F0" style="stroke:#181818;stroke-width:1.5;"/><path d="M492,406.2188 C492,416.2188 510,416.2188 510,416.2188 C510,416.2188 528,416.2188 528,406.2188 " fill="none" style="stroke:#181818;stroke-width:1.5;"/><rect fill="#FFFFFF" height="254.6484" style="stroke:#181818;stroke-width:1.0;" width="10" x="194.5" y="114.9609"/><rect fill="#FFFFFF" height="91.0547" style="stroke:#181818;stroke-width:1.0;" width="10" x="400.5" y="145.3125"/><rect fill="#FFFFFF" height="30.3516" style="stroke:#181818;stroke-width:1.0;" width="10" x="505" y="175.6641"/><polygon fill="#181818" points="182.5,110.9609,192.5,114.9609,182.5,118.9609,186.5,114.9609" style="stroke:#181818;stroke-width:1.0;"/><line style="stroke:#181818;stroke-width:1.0;" x1="37.5" x2="188.5" y1="114.9609" y2="114.9609"/><text fill="#000000" font-family="sans-serif" font-size="13" lengthAdjust="spacing" textLength="117" x="44.5" y="110.1045">wants to see boards</text><polygon fill="#181818" points="388.5,141.3125,398.5,145.3125,388.5,149.3125,392.5,145.3125" style="stroke:#181818;stroke-width:1.0;"/><line style="stroke:#181818;stroke-width:1.0;" x1="204.5" x2="394.5" y1="145.3125" y2="145.3125"/><text fill="#000000" font-family="sans-serif" font-size="13" lengthAdjust="spacing" textLength="177" x="211.5" y="140.4561">attempts to get the information</text><polygon fill="#181818" points="493,171.6641,503,175.6641,493,179.6641,497,175.6641" style="stroke:#181818;stroke-width:1.0;"/><line style="stroke:#181818;stroke-width:1.0;" x1="410.5" x2="499" y1="175.6641" y2="175.6641"/><text fill="#000000" font-family="sans-serif" font-size="13" lengthAdjust="spacing" textLength="53" x="417.5" y="170.8076">searches</text><polygon fill="#181818" points="421.5,202.0156,411.5,206.0156,421.5,210.0156,417.5,206.0156" style="stroke:#181818;stroke-width:1.0;"/><line style="stroke:#181818;stroke-width:1.0;stroke-dasharray:2.0,2.0;" x1="415.5" x2="509" y1="206.0156" y2="206.0156"/><text fill="#000000" font-family="sans-serif" font-size="13" lengthAdjust="spacing" textLength="31" x="427.5" y="201.1592">found</text><polygon fill="#181818" points="215.5,232.3672,205.5,236.3672,215.5,240.3672,211.5,236.3672" style="stroke:#181818;stroke-width:1.0;"/><line style="stroke:#181818;stroke-width:1.0;stroke-dasharray:2.0,2.0;" x1="209.5" x2="404.5" y1="236.3672" y2="236.3672"/><text fill="#000000" font-family="sans-serif" font-size="13" lengthAdjust="spacing" textLength="31" x="221.5" y="231.5107">found</text><path d="M10,251.3672 L71,251.3672 L71,259.7188 L61,269.7188 L10,269.7188 L10,251.3672 " fill="#EEEEEE" style="stroke:#000000;stroke-width:1.5;"/><rect fill="none" height="111.2422" style="stroke:#000000;stroke-width:1.5;" width="224.5" x="10" y="251.3672"/><text fill="#000000" font-family="sans-serif" font-size="13" font-weight="bold" lengthAdjust="spacing" textLength="16" x="25" y="265.8623">alt</text><text fill="#000000" font-family="sans-serif" font-size="11" font-weight="bold" lengthAdjust="spacing" textLength="98" x="86" y="264.7861">[successful case]</text><polygon fill="#181818" points="48.5,288.0703,38.5,292.0703,48.5,296.0703,44.5,292.0703" style="stroke:#181818;stroke-width:1.0;"/><line style="stroke:#181818;stroke-width:1.0;stroke-dasharray:2.0,2.0;" x1="42.5" x2="193.5" y1="292.0703" y2="292.0703"/><text fill="#000000" font-family="sans-serif" font-size="13" lengthAdjust="spacing" textLength="131" x="54.5" y="287.2139">displayed successfully</text><line style="stroke:#000000;stroke-width:1.0;stroke-dasharray:2.0,2.0;" x1="10" x2="234.5" y1="301.0703" y2="301.0703"/><text fill="#000000" font-family="sans-serif" font-size="11" font-weight="bold" lengthAdjust="spacing" textLength="115" x="15" y="312.4893">[unsuccessfull case]</text><polygon fill="#181818" points="48.5,350.6094,38.5,354.6094,48.5,358.6094,44.5,354.6094" style="stroke:#181818;stroke-width:1.0;"/><line style="stroke:#181818;stroke-width:1.0;stroke-dasharray:2.0,2.0;" x1="42.5" x2="193.5" y1="354.6094" y2="354.6094"/><text fill="#000000" font-family="sans-serif" font-size="13" lengthAdjust="spacing" textLength="129" x="54.5" y="333.4014">something went wrong</text><text fill="#000000" font-family="sans-serif" font-size="13" lengthAdjust="spacing" textLength="90" x="54.5" y="349.7529">with the display</text><!--SRC=[TL6xRiCW5DtvYYildHplLjKb_OEgMvThk0weF2ounChV1mVSEgewSMJEY-CNpRoCmx1Oz9oTFSdWXlHj_88HtKcpiqAWv12X-qmKEy04kG1H26oaMOeEkhCrvFbnMU7pzGV5QzDMA1GoJfW8klSTdODdDBxnr2J4bWFzMxCSOIrc2JX08e8fO5HfwsQkoBJdrcDJrQGHa9dSKeKNOc1DOFmSeaCsmVywj6hrs1pKD9OeZ5BJ8QWqKnFqXuGvPA-4eYDbTpdK_qDhWMWPKfQIKfgp1Ld6g4z_xViViJAf_ACRgGFLtWJPibpsXs__w5DmnDhu2wpRFciC1NxvrR1-BDBy1JrNRAlU0G00]--></g></svg>