<?xml version="1.0" encoding="us-ascii" standalone="no"?><svg xmlns="http://www.w3.org/2000/svg" xmlns:xlink="http://www.w3.org/1999/xlink" contentStyleType="text/css" height="555px" preserveAspectRatio="none" style="width:518px;height:555px;background:#FFFFFF;" version="1.1" viewBox="0 0 518 555" width="518px" zoomAndPan="magnify"><defs/><g><rect fill="#FFFFFF" height="30.3516" style="stroke:#181818;stroke-width:1.0;" width="10" x="194.5" y="114.9609"/><rect fill="#FFFFFF" height="271" style="stroke:#181818;stroke-width:1.0;" width="10" x="194.5" y="192.0156"/><rect fill="#FFFFFF" height="91.0547" style="stroke:#181818;stroke-width:1.0;" width="10" x="341.5" y="238.7188"/><rect fill="#FFFFFF" height="30.3516" style="stroke:#181818;stroke-width:1.0;" width="10" x="446" y="269.0703"/><rect fill="none" height="111.2422" style="stroke:#000000;stroke-width:1.5;" width="224.5" x="10" y="344.7734"/><line style="stroke:#181818;stroke-width:0.5;stroke-dasharray:5.0,5.0;" x1="37" x2="37" y1="82.6094" y2="473.0156"/><line style="stroke:#181818;stroke-width:0.5;stroke-dasharray:5.0,5.0;" x1="199.5" x2="199.5" y1="82.6094" y2="473.0156"/><line style="stroke:#181818;stroke-width:0.5;stroke-dasharray:5.0,5.0;" x1="346.5" x2="346.5" y1="82.6094" y2="473.0156"/><line style="stroke:#181818;stroke-width:0.5;stroke-dasharray:5.0,5.0;" x1="450.5" x2="450.5" y1="82.6094" y2="473.0156"/><text fill="#000000" font-family="sans-serif" font-size="14" lengthAdjust="spacing" textLength="29" x="20" y="79.5332">User</text><ellipse cx="37.5" cy="13.5" fill="#E2E2F0" rx="8" ry="8" style="stroke:#181818;stroke-width:0.5;"/><path d="M37.5,21.5 L37.5,48.5 M24.5,29.5 L50.5,29.5 M37.5,48.5 L24.5,63.5 M37.5,48.5 L50.5,63.5 " fill="none" style="stroke:#181818;stroke-width:0.5;"/><text fill="#000000" font-family="sans-serif" font-size="14" lengthAdjust="spacing" textLength="29" x="20" y="486.5488">User</text><ellipse cx="37.5" cy="498.125" fill="#E2E2F0" rx="8" ry="8" style="stroke:#181818;stroke-width:0.5;"/><path d="M37.5,506.125 L37.5,533.125 M24.5,514.125 L50.5,514.125 M37.5,533.125 L24.5,548.125 M37.5,533.125 L50.5,548.125 " fill="none" style="stroke:#181818;stroke-width:0.5;"/><rect fill="#E2E2F0" height="31.6094" rx="2.5" ry="2.5" style="stroke:#181818;stroke-width:0.5;" width="50" x="174.5" y="50"/><text fill="#000000" font-family="sans-serif" font-size="14" lengthAdjust="spacing" textLength="36" x="181.5" y="71.5332">Client</text><rect fill="#E2E2F0" height="31.6094" rx="2.5" ry="2.5" style="stroke:#181818;stroke-width:0.5;" width="50" x="174.5" y="472.0156"/><text fill="#000000" font-family="sans-serif" font-size="14" lengthAdjust="spacing" textLength="36" x="181.5" y="493.5488">Client</text><rect fill="#E2E2F0" height="31.6094" rx="2.5" ry="2.5" style="stroke:#181818;stroke-width:0.5;" width="56" x="318.5" y="50"/><text fill="#000000" font-family="sans-serif" font-size="14" lengthAdjust="spacing" textLength="42" x="325.5" y="71.5332">Server</text><rect fill="#E2E2F0" height="31.6094" rx="2.5" ry="2.5" style="stroke:#181818;stroke-width:0.5;" width="56" x="318.5" y="472.0156"/><text fill="#000000" font-family="sans-serif" font-size="14" lengthAdjust="spacing" textLength="42" x="325.5" y="493.5488">Server</text><text fill="#000000" font-family="sans-serif" font-size="14" lengthAdjust="spacing" textLength="127" x="384.5" y="79.5332">Database Container</text><path d="M433,29 C433,19 451,19 451,19 C451,19 469,19 469,29 L469,55 C469,65 451,65 451,65 C451,65 433,65 433,55 L433,29 " fill="#E2E2F0" style="stroke:#181818;stroke-width:1.5;"/><path d="M433,29 C433,39 451,39 451,39 C451,39 469,39 469,29 " fill="none" style="stroke:#181818;stroke-width:1.5;"/><text fill="#000000" font-family="sans-serif" font-size="14" lengthAdjust="spacing" textLength="127" x="384.5" y="486.5488">Database Container</text><path d="M433,499.625 C433,489.625 451,489.625 451,489.625 C451,489.625 469,489.625 469,499.625 L469,525.625 C469,535.625 451,535.625 451,535.625 C451,535.625 433,535.625 433,525.625 L433,499.625 " fill="#E2E2F0" style="stroke:#181818;stroke-width:1.5;"/><path d="M433,499.625 C433,509.625 451,509.625 451,509.625 C451,509.625 469,509.625 469,499.625 " fill="none" style="stroke:#181818;stroke-width:1.5;"/><rect fill="#FFFFFF" height="30.3516" style="stroke:#181818;stroke-width:1.0;" width="10" x="194.5" y="114.9609"/><rect fill="#FFFFFF" height="271" style="stroke:#181818;stroke-width:1.0;" width="10" x="194.5" y="192.0156"/><rect fill="#FFFFFF" height="91.0547" style="stroke:#181818;stroke-width:1.0;" width="10" x="341.5" y="238.7188"/><rect fill="#FFFFFF" height="30.3516" style="stroke:#181818;stroke-width:1.0;" width="10" x="446" y="269.0703"/><polygon fill="#181818" points="182.5,110.9609,192.5,114.9609,182.5,118.9609,186.5,114.9609" style="stroke:#181818;stroke-width:1.0;"/><line style="stroke:#181818;stroke-width:1.0;" x1="37.5" x2="188.5" y1="114.9609" y2="114.9609"/><text fill="#000000" font-family="sans-serif" font-size="13" lengthAdjust="spacing" textLength="89" x="44.5" y="110.1045">wants to create</text><polygon fill="#181818" points="48.5,141.3125,38.5,145.3125,48.5,149.3125,44.5,145.3125" style="stroke:#181818;stroke-width:1.0;"/><line style="stroke:#181818;stroke-width:1.0;stroke-dasharray:2.0,2.0;" x1="42.5" x2="198.5" y1="145.3125" y2="145.3125"/><text fill="#000000" font-family="sans-serif" font-size="13" lengthAdjust="spacing" textLength="93" x="54.5" y="140.4561">asks for the title</text><polygon fill="#181818" points="182.5,188.0156,192.5,192.0156,182.5,196.0156,186.5,192.0156" style="stroke:#181818;stroke-width:1.0;"/><line style="stroke:#181818;stroke-width:1.0;" x1="37.5" x2="188.5" y1="192.0156" y2="192.0156"/><text fill="#000000" font-family="sans-serif" font-size="13" lengthAdjust="spacing" textLength="93" x="44.5" y="170.8076">gives necessary</text><text fill="#000000" font-family="sans-serif" font-size="13" lengthAdjust="spacing" textLength="118" x="44.5" y="187.1592">information to create</text><polygon fill="#181818" points="329.5,234.7188,339.5,238.7188,329.5,242.7188,333.5,238.7188" style="stroke:#181818;stroke-width:1.0;"/><line style="stroke:#181818;stroke-width:1.0;" x1="204.5" x2="335.5" y1="238.7188" y2="238.7188"/><text fill="#000000" font-family="sans-serif" font-size="13" lengthAdjust="spacing" textLength="93" x="211.5" y="217.5107">gives necessary</text><text fill="#000000" font-family="sans-serif" font-size="13" lengthAdjust="spacing" textLength="118" x="211.5" y="233.8623">information to create</text><polygon fill="#181818" points="434,265.0703,444,269.0703,434,273.0703,438,269.0703" style="stroke:#181818;stroke-width:1.0;"/><line style="stroke:#181818;stroke-width:1.0;" x1="351.5" x2="440" y1="269.0703" y2="269.0703"/><text fill="#000000" font-family="sans-serif" font-size="13" lengthAdjust="spacing" textLength="39" x="358.5" y="264.2139">inserts</text><polygon fill="#181818" points="362.5,295.4219,352.5,299.4219,362.5,303.4219,358.5,299.4219" style="stroke:#181818;stroke-width:1.0;"/><line style="stroke:#181818;stroke-width:1.0;stroke-dasharray:2.0,2.0;" x1="356.5" x2="450" y1="299.4219" y2="299.4219"/><text fill="#000000" font-family="sans-serif" font-size="13" lengthAdjust="spacing" textLength="46" x="368.5" y="294.5654">inserted</text><polygon fill="#181818" points="215.5,325.7734,205.5,329.7734,215.5,333.7734,211.5,329.7734" style="stroke:#181818;stroke-width:1.0;"/><line style="stroke:#181818;stroke-width:1.0;stroke-dasharray:2.0,2.0;" x1="209.5" x2="345.5" y1="329.7734" y2="329.7734"/><text fill="#000000" font-family="sans-serif" font-size="13" lengthAdjust="spacing" textLength="46" x="221.5" y="324.917">inserted</text><path d="M10,344.7734 L71,344.7734 L71,353.125 L61,363.125 L10,363.125 L10,344.7734 " fill="#EEEEEE" style="stroke:#000000;stroke-width:1.5;"/><rect fill="none" height="111.2422" style="stroke:#000000;stroke-width:1.5;" width="224.5" x="10" y="344.7734"/><text fill="#000000" font-family="sans-serif" font-size="13" font-weight="bold" lengthAdjust="spacing" textLength="16" x="25" y="359.2686">alt</text><text fill="#000000" font-family="sans-serif" font-size="11" font-weight="bold" lengthAdjust="spacing" textLength="98" x="86" y="358.1924">[successful case]</text><polygon fill="#181818" points="48.5,381.4766,38.5,385.4766,48.5,389.4766,44.5,385.4766" style="stroke:#181818;stroke-width:1.0;"/><line style="stroke:#181818;stroke-width:1.0;stroke-dasharray:2.0,2.0;" x1="42.5" x2="193.5" y1="385.4766" y2="385.4766"/><text fill="#000000" font-family="sans-serif" font-size="13" lengthAdjust="spacing" textLength="119" x="54.5" y="380.6201">created successfully</text><line style="stroke:#000000;stroke-width:1.0;stroke-dasharray:2.0,2.0;" x1="10" x2="234.5" y1="394.4766" y2="394.4766"/><text fill="#000000" font-family="sans-serif" font-size="11" font-weight="bold" lengthAdjust="spacing" textLength="115" x="15" y="405.8955">[unsuccessfull case]</text><polygon fill="#181818" points="48.5,444.0156,38.5,448.0156,48.5,452.0156,44.5,448.0156" style="stroke:#181818;stroke-width:1.0;"/><line style="stroke:#181818;stroke-width:1.0;stroke-dasharray:2.0,2.0;" x1="42.5" x2="193.5" y1="448.0156" y2="448.0156"/><text fill="#000000" font-family="sans-serif" font-size="13" lengthAdjust="spacing" textLength="129" x="54.5" y="426.8076">something went wrong</text><text fill="#000000" font-family="sans-serif" font-size="13" lengthAdjust="spacing" textLength="95" x="54.5" y="443.1592">with the creation</text><!--SRC=[dL6zReCm4Dxz52UMJeGTLLdIDwYwPJ7s9LWnPsGVeBnz3mmjRPEbap_vlf_xUMcP-xggUg-9XyuVJEYgT7FKwwYxGykTLqeR3X6AZuIn09rW4A24mCwuNdHGdBn3ugMOuS_oEyPnrMQeh6RTw8HGl6te58YrevLd6wNc72YFgsKDavWbu00cecPS6dEZe2qqFr2APjRMOdHBS97ckKLWnnwLnT-gFpbNDs82GeCfwNY7CpaIaqwp2xJBVnP_NAVyXzEwdlpCJhQfmP4qoEcR9SknpJBc5fGfQFVZ2MlpsGttYBccQi-G1ZCtUnay6BbAtirhMNxfSyTsH_HtXLuEED3kxuawXGwvTNI5QLxL58F0CqsEs-L6YxliHY7P1wVw1000]--></g></svg>