<?xml version="1.0" encoding="us-ascii" standalone="no"?><svg xmlns="http://www.w3.org/2000/svg" xmlns:xlink="http://www.w3.org/1999/xlink" contentStyleType="text/css" height="753px" preserveAspectRatio="none" style="width:1056px;height:753px;background:#FFFFFF;" version="1.1" viewBox="0 0 1056 753" width="1056px" zoomAndPan="magnify"><defs/><g><rect fill="#FFFFFF" height="533.8125" style="stroke:#181818;stroke-width:1.0;" width="10" x="53.5" y="110.2188"/><rect fill="#FFFFFF" height="496.4609" style="stroke:#181818;stroke-width:1.0;" width="10" x="257.5" y="132.5703"/><rect fill="#FFFFFF" height="435.7578" style="stroke:#181818;stroke-width:1.0;" width="10" x="527.5" y="162.9219"/><rect fill="#FFFFFF" height="375.0547" style="stroke:#181818;stroke-width:1.0;" width="10" x="749.5" y="193.2734"/><rect fill="#FFFFFF" height="91.0547" style="stroke:#181818;stroke-width:1.0;" width="10" x="916.5" y="223.625"/><rect fill="none" height="307.3516" style="stroke:#000000;stroke-width:1.5;" width="804.5" x="10" y="329.6797"/><line style="stroke:#181818;stroke-width:0.5;stroke-dasharray:5.0,5.0;" x1="58" x2="58" y1="100.2188" y2="654.0313"/><line style="stroke:#181818;stroke-width:0.5;stroke-dasharray:5.0,5.0;" x1="262.5" x2="262.5" y1="100.2188" y2="654.0313"/><line style="stroke:#181818;stroke-width:0.5;stroke-dasharray:5.0,5.0;" x1="532.5" x2="532.5" y1="100.2188" y2="654.0313"/><line style="stroke:#181818;stroke-width:0.5;stroke-dasharray:5.0,5.0;" x1="754.5" x2="754.5" y1="100.2188" y2="654.0313"/><line style="stroke:#181818;stroke-width:0.5;stroke-dasharray:5.0,5.0;" x1="921.5" x2="921.5" y1="100.2188" y2="654.0313"/><text fill="#000000" font-family="sans-serif" font-size="14" font-style="italic" lengthAdjust="spacing" textLength="71" x="20" y="79.5332">&#171;interface&#187;</text><text fill="#000000" font-family="sans-serif" font-size="14" lengthAdjust="spacing" textLength="29" x="41" y="97.1426">User</text><ellipse cx="58.5" cy="13.5" fill="#E2E2F0" rx="8" ry="8" style="stroke:#181818;stroke-width:0.5;"/><path d="M58.5,21.5 L58.5,48.5 M45.5,29.5 L71.5,29.5 M58.5,48.5 L45.5,63.5 M58.5,48.5 L71.5,63.5 " fill="none" style="stroke:#181818;stroke-width:0.5;"/><text fill="#000000" font-family="sans-serif" font-size="14" font-style="italic" lengthAdjust="spacing" textLength="71" x="20" y="667.5645">&#171;interface&#187;</text><text fill="#000000" font-family="sans-serif" font-size="14" lengthAdjust="spacing" textLength="29" x="41" y="685.1738">User</text><ellipse cx="58.5" cy="696.75" fill="#E2E2F0" rx="8" ry="8" style="stroke:#181818;stroke-width:0.5;"/><path d="M58.5,704.75 L58.5,731.75 M45.5,712.75 L71.5,712.75 M58.5,731.75 L45.5,746.75 M58.5,731.75 L71.5,746.75 " fill="none" style="stroke:#181818;stroke-width:0.5;"/><rect fill="#E2E2F0" height="49.2188" rx="2.5" ry="2.5" style="stroke:#181818;stroke-width:0.5;" width="100" x="212.5" y="50"/><text fill="#000000" font-family="sans-serif" font-size="14" font-style="italic" lengthAdjust="spacing" textLength="86" x="219.5" y="71.5332">&#171;component&#187;</text><text fill="#000000" font-family="sans-serif" font-size="14" lengthAdjust="spacing" textLength="29" x="248" y="89.1426">View</text><rect fill="#E2E2F0" height="49.2188" rx="2.5" ry="2.5" style="stroke:#181818;stroke-width:0.5;" width="100" x="212.5" y="653.0313"/><text fill="#000000" font-family="sans-serif" font-size="14" font-style="italic" lengthAdjust="spacing" textLength="86" x="219.5" y="674.5645">&#171;component&#187;</text><text fill="#000000" font-family="sans-serif" font-size="14" lengthAdjust="spacing" textLength="29" x="248" y="692.1738">View</text><rect fill="#E2E2F0" height="49.2188" rx="2.5" ry="2.5" style="stroke:#181818;stroke-width:0.5;" width="100" x="482.5" y="50"/><text fill="#000000" font-family="sans-serif" font-size="14" font-style="italic" lengthAdjust="spacing" textLength="86" x="489.5" y="71.5332">&#171;component&#187;</text><text fill="#000000" font-family="sans-serif" font-size="14" lengthAdjust="spacing" textLength="73" x="496" y="89.1426">Component</text><rect fill="#E2E2F0" height="49.2188" rx="2.5" ry="2.5" style="stroke:#181818;stroke-width:0.5;" width="100" x="482.5" y="653.0313"/><text fill="#000000" font-family="sans-serif" font-size="14" font-style="italic" lengthAdjust="spacing" textLength="86" x="489.5" y="674.5645">&#171;component&#187;</text><text fill="#000000" font-family="sans-serif" font-size="14" lengthAdjust="spacing" textLength="73" x="496" y="692.1738">Component</text><rect fill="#E2E2F0" height="49.2188" rx="2.5" ry="2.5" style="stroke:#181818;stroke-width:0.5;" width="100" x="704.5" y="50"/><text fill="#000000" font-family="sans-serif" font-size="14" font-style="italic" lengthAdjust="spacing" textLength="86" x="711.5" y="71.5332">&#171;component&#187;</text><text fill="#000000" font-family="sans-serif" font-size="14" lengthAdjust="spacing" textLength="47" x="731" y="89.1426">Service</text><rect fill="#E2E2F0" height="49.2188" rx="2.5" ry="2.5" style="stroke:#181818;stroke-width:0.5;" width="100" x="704.5" y="653.0313"/><text fill="#000000" font-family="sans-serif" font-size="14" font-style="italic" lengthAdjust="spacing" textLength="86" x="711.5" y="674.5645">&#171;component&#187;</text><text fill="#000000" font-family="sans-serif" font-size="14" lengthAdjust="spacing" textLength="47" x="731" y="692.1738">Service</text><rect fill="#E2E2F0" height="49.2188" rx="2.5" ry="2.5" style="stroke:#181818;stroke-width:0.5;" width="100" x="871.5" y="50"/><text fill="#000000" font-family="sans-serif" font-size="14" font-style="italic" lengthAdjust="spacing" textLength="86" x="878.5" y="71.5332">&#171;component&#187;</text><text fill="#000000" font-family="sans-serif" font-size="14" lengthAdjust="spacing" textLength="74" x="884.5" y="89.1426">HTTPDriver</text><rect fill="#E2E2F0" height="49.2188" rx="2.5" ry="2.5" style="stroke:#181818;stroke-width:0.5;" width="100" x="871.5" y="653.0313"/><text fill="#000000" font-family="sans-serif" font-size="14" font-style="italic" lengthAdjust="spacing" textLength="86" x="878.5" y="674.5645">&#171;component&#187;</text><text fill="#000000" font-family="sans-serif" font-size="14" lengthAdjust="spacing" textLength="74" x="884.5" y="692.1738">HTTPDriver</text><rect fill="#FFFFFF" height="533.8125" style="stroke:#181818;stroke-width:1.0;" width="10" x="53.5" y="110.2188"/><rect fill="#FFFFFF" height="496.4609" style="stroke:#181818;stroke-width:1.0;" width="10" x="257.5" y="132.5703"/><rect fill="#FFFFFF" height="435.7578" style="stroke:#181818;stroke-width:1.0;" width="10" x="527.5" y="162.9219"/><rect fill="#FFFFFF" height="375.0547" style="stroke:#181818;stroke-width:1.0;" width="10" x="749.5" y="193.2734"/><rect fill="#FFFFFF" height="91.0547" style="stroke:#181818;stroke-width:1.0;" width="10" x="916.5" y="223.625"/><polygon fill="#181818" points="245.5,128.5703,255.5,132.5703,245.5,136.5703,249.5,132.5703" style="stroke:#181818;stroke-width:1.0;"/><line style="stroke:#181818;stroke-width:1.0;" x1="63.5" x2="251.5" y1="132.5703" y2="132.5703"/><text fill="#000000" font-family="sans-serif" font-size="13" font-weight="bold" lengthAdjust="spacing" textLength="7" x="70.5" y="127.7139">1</text><text fill="#000000" font-family="sans-serif" font-size="13" lengthAdjust="spacing" textLength="42" x="81.5" y="127.7139">onLoad</text><polygon fill="#181818" points="515.5,158.9219,525.5,162.9219,515.5,166.9219,519.5,162.9219" style="stroke:#181818;stroke-width:1.0;"/><line style="stroke:#181818;stroke-width:1.0;" x1="267.5" x2="521.5" y1="162.9219" y2="162.9219"/><text fill="#000000" font-family="sans-serif" font-size="13" font-weight="bold" lengthAdjust="spacing" textLength="7" x="274.5" y="158.0654">2</text><text fill="#000000" font-family="sans-serif" font-size="13" lengthAdjust="spacing" textLength="115" x="285.5" y="158.0654">requests board data</text><polygon fill="#181818" points="737.5,189.2734,747.5,193.2734,737.5,197.2734,741.5,193.2734" style="stroke:#181818;stroke-width:1.0;"/><line style="stroke:#181818;stroke-width:1.0;" x1="537.5" x2="743.5" y1="193.2734" y2="193.2734"/><text fill="#000000" font-family="sans-serif" font-size="13" font-weight="bold" lengthAdjust="spacing" textLength="7" x="544.5" y="188.417">3</text><text fill="#000000" font-family="sans-serif" font-size="13" lengthAdjust="spacing" textLength="115" x="555.5" y="188.417">requests board data</text><polygon fill="#181818" points="904.5,219.625,914.5,223.625,904.5,227.625,908.5,223.625" style="stroke:#181818;stroke-width:1.0;"/><line style="stroke:#181818;stroke-width:1.0;" x1="759.5" x2="910.5" y1="223.625" y2="223.625"/><text fill="#000000" font-family="sans-serif" font-size="13" font-weight="bold" lengthAdjust="spacing" textLength="7" x="766.5" y="218.7686">4</text><text fill="#000000" font-family="sans-serif" font-size="13" lengthAdjust="spacing" textLength="127" x="777.5" y="218.7686">GET method for board</text><polygon fill="#181818" points="1038.5,249.9766,1048.5,253.9766,1038.5,257.9766,1042.5,253.9766" style="stroke:#181818;stroke-width:1.0;"/><line style="stroke:#181818;stroke-width:1.0;" x1="926.5" x2="1044.5" y1="253.9766" y2="253.9766"/><text fill="#000000" font-family="sans-serif" font-size="13" font-weight="bold" lengthAdjust="spacing" textLength="7" x="933.5" y="249.1201">5</text><text fill="#000000" font-family="sans-serif" font-size="13" lengthAdjust="spacing" textLength="62" x="944.5" y="249.1201">GET board</text><polygon fill="#181818" points="937.5,280.3281,927.5,284.3281,937.5,288.3281,933.5,284.3281" style="stroke:#181818;stroke-width:1.0;"/><line style="stroke:#181818;stroke-width:1.0;stroke-dasharray:2.0,2.0;" x1="931.5" x2="1049.5" y1="284.3281" y2="284.3281"/><text fill="#000000" font-family="sans-serif" font-size="13" font-weight="bold" lengthAdjust="spacing" textLength="7" x="943.5" y="279.4717">6</text><text fill="#000000" font-family="sans-serif" font-size="13" lengthAdjust="spacing" textLength="89" x="954.5" y="279.4717">HTTP response</text><polygon fill="#181818" points="770.5,310.6797,760.5,314.6797,770.5,318.6797,766.5,314.6797" style="stroke:#181818;stroke-width:1.0;"/><line style="stroke:#181818;stroke-width:1.0;stroke-dasharray:2.0,2.0;" x1="764.5" x2="920.5" y1="314.6797" y2="314.6797"/><text fill="#000000" font-family="sans-serif" font-size="13" font-weight="bold" lengthAdjust="spacing" textLength="7" x="776.5" y="309.8232">7</text><text fill="#000000" font-family="sans-serif" font-size="13" lengthAdjust="spacing" textLength="53" x="787.5" y="309.8232">response</text><path d="M10,329.6797 L71,329.6797 L71,338.0313 L61,348.0313 L10,348.0313 L10,329.6797 " fill="#EEEEEE" style="stroke:#000000;stroke-width:1.5;"/><rect fill="none" height="307.3516" style="stroke:#000000;stroke-width:1.5;" width="804.5" x="10" y="329.6797"/><text fill="#000000" font-family="sans-serif" font-size="13" font-weight="bold" lengthAdjust="spacing" textLength="16" x="25" y="344.1748">alt</text><a href="response" target="_top" title="response" xlink:actuate="onRequest" xlink:href="response" xlink:show="new" xlink:title="response" xlink:type="simple"><text fill="#0000FF" font-family="sans-serif" font-size="11" font-weight="bold" lengthAdjust="spacing" text-decoration="underline" textLength="82" x="86" y="343.0986">contains board</text></a><polygon fill="#181818" points="548.5,366.3828,538.5,370.3828,548.5,374.3828,544.5,370.3828" style="stroke:#181818;stroke-width:1.0;"/><line style="stroke:#181818;stroke-width:1.0;stroke-dasharray:2.0,2.0;" x1="542.5" x2="748.5" y1="370.3828" y2="370.3828"/><text fill="#000000" font-family="sans-serif" font-size="13" font-weight="bold" lengthAdjust="spacing" textLength="7" x="554.5" y="365.5264">8</text><text fill="#000000" font-family="sans-serif" font-size="13" lengthAdjust="spacing" textLength="61" x="565.5" y="365.5264">board data</text><polygon fill="#181818" points="278.5,396.7344,268.5,400.7344,278.5,404.7344,274.5,400.7344" style="stroke:#181818;stroke-width:1.0;"/><line style="stroke:#181818;stroke-width:1.0;stroke-dasharray:2.0,2.0;" x1="272.5" x2="526.5" y1="400.7344" y2="400.7344"/><text fill="#000000" font-family="sans-serif" font-size="13" font-weight="bold" lengthAdjust="spacing" textLength="7" x="284.5" y="395.8779">9</text><text fill="#000000" font-family="sans-serif" font-size="13" lengthAdjust="spacing" textLength="61" x="295.5" y="395.8779">board data</text><polygon fill="#181818" points="74.5,427.0859,64.5,431.0859,74.5,435.0859,70.5,431.0859" style="stroke:#181818;stroke-width:1.0;"/><line style="stroke:#181818;stroke-width:1.0;stroke-dasharray:2.0,2.0;" x1="68.5" x2="256.5" y1="431.0859" y2="431.0859"/><text fill="#000000" font-family="sans-serif" font-size="13" font-weight="bold" lengthAdjust="spacing" textLength="14" x="80.5" y="426.2295">10</text><text fill="#000000" font-family="sans-serif" font-size="13" lengthAdjust="spacing" textLength="135" x="98.5" y="426.2295">displays the board data</text><line style="stroke:#000000;stroke-width:1.0;stroke-dasharray:2.0,2.0;" x1="10" x2="814.5" y1="440.0859" y2="440.0859"/><a href="unsuccessfull" target="_top" title="unsuccessfull" xlink:actuate="onRequest" xlink:href="unsuccessfull" xlink:show="new" xlink:title="unsuccessfull" xlink:type="simple"><text fill="#0000FF" font-family="sans-serif" font-size="11" font-weight="bold" lengthAdjust="spacing" text-decoration="underline" textLength="78" x="15" y="451.5049">unsuccessfull</text></a><polygon fill="#181818" points="548.5,473.2734,538.5,477.2734,548.5,481.2734,544.5,477.2734" style="stroke:#181818;stroke-width:1.0;"/><line style="stroke:#181818;stroke-width:1.0;stroke-dasharray:2.0,2.0;" x1="542.5" x2="748.5" y1="477.2734" y2="477.2734"/><text fill="#000000" font-family="sans-serif" font-size="13" font-weight="bold" lengthAdjust="spacing" textLength="14" x="554.5" y="472.417">11</text><text fill="#000000" font-family="sans-serif" font-size="13" lengthAdjust="spacing" textLength="125" x="572.5" y="472.417">empty responde body</text><polygon fill="#181818" points="278.5,503.625,268.5,507.625,278.5,511.625,274.5,507.625" style="stroke:#181818;stroke-width:1.0;"/><line style="stroke:#181818;stroke-width:1.0;stroke-dasharray:2.0,2.0;" x1="272.5" x2="526.5" y1="507.625" y2="507.625"/><text fill="#000000" font-family="sans-serif" font-size="13" font-weight="bold" lengthAdjust="spacing" textLength="14" x="284.5" y="502.7686">12</text><text fill="#000000" font-family="sans-serif" font-size="13" lengthAdjust="spacing" textLength="218" x="302.5" y="502.7686">informs that no board data is available</text><polygon fill="#181818" points="74.5,533.9766,64.5,537.9766,74.5,541.9766,70.5,537.9766" style="stroke:#181818;stroke-width:1.0;"/><line style="stroke:#181818;stroke-width:1.0;stroke-dasharray:2.0,2.0;" x1="68.5" x2="256.5" y1="537.9766" y2="537.9766"/><text fill="#000000" font-family="sans-serif" font-size="13" font-weight="bold" lengthAdjust="spacing" textLength="14" x="80.5" y="533.1201">13</text><text fill="#000000" font-family="sans-serif" font-size="13" lengthAdjust="spacing" textLength="152" x="98.5" y="533.1201">display no board message</text><polygon fill="#181818" points="548.5,564.3281,538.5,568.3281,548.5,572.3281,544.5,568.3281" style="stroke:#181818;stroke-width:1.0;"/><line style="stroke:#181818;stroke-width:1.0;stroke-dasharray:2.0,2.0;" x1="542.5" x2="753.5" y1="568.3281" y2="568.3281"/><text fill="#000000" font-family="sans-serif" font-size="13" font-weight="bold" lengthAdjust="spacing" textLength="14" x="554.5" y="563.4717">14</text><text fill="#000000" font-family="sans-serif" font-size="13" lengthAdjust="spacing" textLength="170" x="572.5" y="563.4717">informs that an error occurred</text><polygon fill="#181818" points="278.5,594.6797,268.5,598.6797,278.5,602.6797,274.5,598.6797" style="stroke:#181818;stroke-width:1.0;"/><line style="stroke:#181818;stroke-width:1.0;stroke-dasharray:2.0,2.0;" x1="272.5" x2="531.5" y1="598.6797" y2="598.6797"/><text fill="#000000" font-family="sans-serif" font-size="13" font-weight="bold" lengthAdjust="spacing" textLength="14" x="284.5" y="593.8232">15</text><text fill="#000000" font-family="sans-serif" font-size="13" lengthAdjust="spacing" textLength="170" x="302.5" y="593.8232">informs that an error occurred</text><polygon fill="#181818" points="74.5,625.0313,64.5,629.0313,74.5,633.0313,70.5,629.0313" style="stroke:#181818;stroke-width:1.0;"/><line style="stroke:#181818;stroke-width:1.0;stroke-dasharray:2.0,2.0;" x1="68.5" x2="261.5" y1="629.0313" y2="629.0313"/><text fill="#000000" font-family="sans-serif" font-size="13" font-weight="bold" lengthAdjust="spacing" textLength="14" x="80.5" y="624.1748">16</text><text fill="#000000" font-family="sans-serif" font-size="13" lengthAdjust="spacing" textLength="128" x="98.5" y="624.1748">display error message</text><!--SRC=[XLDDJyCm3BtdL_WFx0zKrIw0uC01YS5buk0b7elK9YLnY_RlYPj-3ZOkIMM_Ppy_fwZP1tYB500ZjEakI-kOmX4rRRUgmS1MsmOTmxkbRq5rwIvBxUl6Et9yWReRum8Lq7NeAuNEQX9Wp9_NiK-xtSjzi5qMUcA-gAiKjknTMnyeADHiEsJg1r9AJjXiU-45UFViqQWP966bv1IG52qWq5TBaICSF0O31XaN3C4e9QSm1ktm7sl0AJKI4bS6ISJ7XntKn2Tlu9ZsqTCNJ44frMCJPy0Fe3vQRZOI5fEIY9XSYJGIPeN58cVeeZfM3FindoPqZDODatpCaYU7bYDc9oQ7bwbiQqh94WemDZOLdYFmYLOugbBNVUjYgpN5U6ohwg-kL3Ty7iOmKi6SVxMtBdbOImjaS7xH1cm4xD1MUAZechQPKYSX-BbSsAHZrGCTK0XfRrxhDWGoAtkdjT-IURj4VczNv6RUf7L1om-RtBfO_YT-0000]--></g></svg>