<?xml version="1.0" encoding="us-ascii" standalone="no"?><svg xmlns="http://www.w3.org/2000/svg" xmlns:xlink="http://www.w3.org/1999/xlink" contentStyleType="text/css" height="518px" preserveAspectRatio="none" style="width:438px;height:518px;background:#FFFFFF;" version="1.1" viewBox="0 0 438 518" width="438px" zoomAndPan="magnify"><defs/><g><rect fill="#FFFFFF" height="30.3516" style="stroke:#181818;stroke-width:1.0;" width="10" x="99" y="327.4219"/><rect fill="#FFFFFF" height="91.0547" style="stroke:#181818;stroke-width:1.0;" width="10" x="188" y="114.9609"/><rect fill="#FFFFFF" height="182.1094" style="stroke:#181818;stroke-width:1.0;" width="10" x="188" y="236.3672"/><rect fill="#FFFFFF" height="30.3516" style="stroke:#181818;stroke-width:1.0;" width="10" x="366" y="145.3125"/><rect fill="#FFFFFF" height="121.4063" style="stroke:#181818;stroke-width:1.0;" width="10" x="366" y="266.7188"/><line style="stroke:#181818;stroke-width:0.5;stroke-dasharray:5.0,5.0;" x1="22" x2="22" y1="82.6094" y2="436.4766"/><line style="stroke:#181818;stroke-width:0.5;stroke-dasharray:5.0,5.0;" x1="104" x2="104" y1="82.6094" y2="436.4766"/><line style="stroke:#181818;stroke-width:0.5;stroke-dasharray:5.0,5.0;" x1="193" x2="193" y1="82.6094" y2="436.4766"/><line style="stroke:#181818;stroke-width:0.5;stroke-dasharray:5.0,5.0;" x1="256" x2="256" y1="82.6094" y2="436.4766"/><line style="stroke:#181818;stroke-width:0.5;stroke-dasharray:5.0,5.0;" x1="370.5" x2="370.5" y1="82.6094" y2="436.4766"/><text fill="#000000" font-family="sans-serif" font-size="14" lengthAdjust="spacing" textLength="29" x="5" y="79.5332">User</text><ellipse cx="22.5" cy="13.5" fill="#E2E2F0" rx="8" ry="8" style="stroke:#181818;stroke-width:0.5;"/><path d="M22.5,21.5 L22.5,48.5 M9.5,29.5 L35.5,29.5 M22.5,48.5 L9.5,63.5 M22.5,48.5 L35.5,63.5 " fill="none" style="stroke:#181818;stroke-width:0.5;"/><text fill="#000000" font-family="sans-serif" font-size="14" lengthAdjust="spacing" textLength="29" x="5" y="450.0098">User</text><ellipse cx="22.5" cy="461.5859" fill="#E2E2F0" rx="8" ry="8" style="stroke:#181818;stroke-width:0.5;"/><path d="M22.5,469.5859 L22.5,496.5859 M9.5,477.5859 L35.5,477.5859 M22.5,496.5859 L9.5,511.5859 M22.5,496.5859 L35.5,511.5859 " fill="none" style="stroke:#181818;stroke-width:0.5;"/><text fill="#000000" font-family="sans-serif" font-size="14" lengthAdjust="spacing" textLength="102" x="50" y="79.5332">Logged in users</text><ellipse cx="104" cy="13.5" fill="#E2E2F0" rx="8" ry="8" style="stroke:#181818;stroke-width:0.5;"/><path d="M104,21.5 L104,48.5 M91,29.5 L117,29.5 M104,48.5 L91,63.5 M104,48.5 L117,63.5 " fill="none" style="stroke:#181818;stroke-width:0.5;"/><text fill="#000000" font-family="sans-serif" font-size="14" lengthAdjust="spacing" textLength="102" x="50" y="450.0098">Logged in users</text><ellipse cx="104" cy="461.5859" fill="#E2E2F0" rx="8" ry="8" style="stroke:#181818;stroke-width:0.5;"/><path d="M104,469.5859 L104,496.5859 M91,477.5859 L117,477.5859 M104,496.5859 L91,511.5859 M104,496.5859 L117,511.5859 " fill="none" style="stroke:#181818;stroke-width:0.5;"/><rect fill="#E2E2F0" height="31.6094" rx="2.5" ry="2.5" style="stroke:#181818;stroke-width:0.5;" width="50" x="168" y="50"/><text fill="#000000" font-family="sans-serif" font-size="14" lengthAdjust="spacing" textLength="36" x="175" y="71.5332">Client</text><rect fill="#E2E2F0" height="31.6094" rx="2.5" ry="2.5" style="stroke:#181818;stroke-width:0.5;" width="50" x="168" y="435.4766"/><text fill="#000000" font-family="sans-serif" font-size="14" lengthAdjust="spacing" textLength="36" x="175" y="457.0098">Client</text><rect fill="#E2E2F0" height="31.6094" rx="2.5" ry="2.5" style="stroke:#181818;stroke-width:0.5;" width="56" x="228" y="50"/><text fill="#000000" font-family="sans-serif" font-size="14" lengthAdjust="spacing" textLength="42" x="235" y="71.5332">Server</text><rect fill="#E2E2F0" height="31.6094" rx="2.5" ry="2.5" style="stroke:#181818;stroke-width:0.5;" width="56" x="228" y="435.4766"/><text fill="#000000" font-family="sans-serif" font-size="14" lengthAdjust="spacing" textLength="42" x="235" y="457.0098">Server</text><text fill="#000000" font-family="sans-serif" font-size="14" lengthAdjust="spacing" textLength="127" x="304.5" y="79.5332">Azure Relay Service</text><path d="M353,29 C353,19 371,19 371,19 C371,19 389,19 389,29 L389,55 C389,65 371,65 371,65 C371,65 353,65 353,55 L353,29 " fill="#E2E2F0" style="stroke:#181818;stroke-width:1.5;"/><path d="M353,29 C353,39 371,39 371,39 C371,39 389,39 389,29 " fill="none" style="stroke:#181818;stroke-width:1.5;"/><text fill="#000000" font-family="sans-serif" font-size="14" lengthAdjust="spacing" textLength="127" x="304.5" y="450.0098">Azure Relay Service</text><path d="M353,463.0859 C353,453.0859 371,453.0859 371,453.0859 C371,453.0859 389,453.0859 389,463.0859 L389,489.0859 C389,499.0859 371,499.0859 371,499.0859 C371,499.0859 353,499.0859 353,489.0859 L353,463.0859 " fill="#E2E2F0" style="stroke:#181818;stroke-width:1.5;"/><path d="M353,463.0859 C353,473.0859 371,473.0859 371,473.0859 C371,473.0859 389,473.0859 389,463.0859 " fill="none" style="stroke:#181818;stroke-width:1.5;"/><rect fill="#FFFFFF" height="30.3516" style="stroke:#181818;stroke-width:1.0;" width="10" x="99" y="327.4219"/><rect fill="#FFFFFF" height="91.0547" style="stroke:#181818;stroke-width:1.0;" width="10" x="188" y="114.9609"/><rect fill="#FFFFFF" height="182.1094" style="stroke:#181818;stroke-width:1.0;" width="10" x="188" y="236.3672"/><rect fill="#FFFFFF" height="30.3516" style="stroke:#181818;stroke-width:1.0;" width="10" x="366" y="145.3125"/><rect fill="#FFFFFF" height="121.4063" style="stroke:#181818;stroke-width:1.0;" width="10" x="366" y="266.7188"/><polygon fill="#181818" points="176,110.9609,186,114.9609,176,118.9609,180,114.9609" style="stroke:#181818;stroke-width:1.0;"/><line style="stroke:#181818;stroke-width:1.0;" x1="22.5" x2="182" y1="114.9609" y2="114.9609"/><text fill="#000000" font-family="sans-serif" font-size="13" lengthAdjust="spacing" textLength="74" x="29.5" y="110.1045">wants to edit</text><polygon fill="#181818" points="354,141.3125,364,145.3125,354,149.3125,358,145.3125" style="stroke:#181818;stroke-width:1.0;"/><line style="stroke:#181818;stroke-width:1.0;" x1="198" x2="360" y1="145.3125" y2="145.3125"/><text fill="#000000" font-family="sans-serif" font-size="13" lengthAdjust="spacing" textLength="77" x="205" y="140.4561">find container</text><polygon fill="#181818" points="209,171.6641,199,175.6641,209,179.6641,205,175.6641" style="stroke:#181818;stroke-width:1.0;"/><line style="stroke:#181818;stroke-width:1.0;stroke-dasharray:2.0,2.0;" x1="203" x2="370" y1="175.6641" y2="175.6641"/><text fill="#000000" font-family="sans-serif" font-size="13" lengthAdjust="spacing" textLength="53" x="215" y="170.8076">container</text><polygon fill="#181818" points="33.5,202.0156,23.5,206.0156,33.5,210.0156,29.5,206.0156" style="stroke:#181818;stroke-width:1.0;"/><line style="stroke:#181818;stroke-width:1.0;stroke-dasharray:2.0,2.0;" x1="27.5" x2="192" y1="206.0156" y2="206.0156"/><text fill="#000000" font-family="sans-serif" font-size="13" lengthAdjust="spacing" textLength="95" x="39.5" y="201.1592">shows the board</text><polygon fill="#181818" points="176,232.3672,186,236.3672,176,240.3672,180,236.3672" style="stroke:#181818;stroke-width:1.0;"/><line style="stroke:#181818;stroke-width:1.0;" x1="22.5" x2="182" y1="236.3672" y2="236.3672"/><text fill="#000000" font-family="sans-serif" font-size="13" lengthAdjust="spacing" textLength="107" x="29.5" y="231.5107">changes the board</text><polygon fill="#181818" points="354,262.7188,364,266.7188,354,270.7188,358,266.7188" style="stroke:#181818;stroke-width:1.0;"/><line style="stroke:#181818;stroke-width:1.0;" x1="198" x2="360" y1="266.7188" y2="266.7188"/><text fill="#000000" font-family="sans-serif" font-size="13" lengthAdjust="spacing" textLength="149" x="205" y="261.8623">saves newly updated data</text><polygon fill="#181818" points="209,293.0703,199,297.0703,209,301.0703,205,297.0703" style="stroke:#181818;stroke-width:1.0;"/><line style="stroke:#181818;stroke-width:1.0;stroke-dasharray:2.0,2.0;" x1="203" x2="365" y1="297.0703" y2="297.0703"/><text fill="#000000" font-family="sans-serif" font-size="13" lengthAdjust="spacing" textLength="33" x="215" y="292.2139">saves</text><polygon fill="#181818" points="120,323.4219,110,327.4219,120,331.4219,116,327.4219" style="stroke:#181818;stroke-width:1.0;"/><line style="stroke:#181818;stroke-width:1.0;" x1="114" x2="365" y1="327.4219" y2="327.4219"/><text fill="#000000" font-family="sans-serif" font-size="13" lengthAdjust="spacing" textLength="147" x="126" y="322.5654">retrieves all data changed</text><polygon fill="#181818" points="354,353.7734,364,357.7734,354,361.7734,358,357.7734" style="stroke:#181818;stroke-width:1.0;"/><line style="stroke:#181818;stroke-width:1.0;stroke-dasharray:2.0,2.0;" x1="104" x2="360" y1="357.7734" y2="357.7734"/><text fill="#000000" font-family="sans-serif" font-size="13" lengthAdjust="spacing" textLength="56" x="111" y="352.917">visualizes</text><polygon fill="#181818" points="209,384.125,199,388.125,209,392.125,205,388.125" style="stroke:#181818;stroke-width:1.0;"/><line style="stroke:#181818;stroke-width:1.0;stroke-dasharray:2.0,2.0;" x1="203" x2="370" y1="388.125" y2="388.125"/><text fill="#000000" font-family="sans-serif" font-size="13" lengthAdjust="spacing" textLength="116" x="215" y="383.2686">shows updated data</text><polygon fill="#181818" points="33.5,414.4766,23.5,418.4766,33.5,422.4766,29.5,418.4766" style="stroke:#181818;stroke-width:1.0;"/><line style="stroke:#181818;stroke-width:1.0;stroke-dasharray:2.0,2.0;" x1="27.5" x2="192" y1="418.4766" y2="418.4766"/><text fill="#000000" font-family="sans-serif" font-size="13" lengthAdjust="spacing" textLength="111" x="39.5" y="413.6201">edited successfully</text><!--SRC=[XL6xRiCm3Dpz5OINJcvsemXGTEtKeX_0o8nDL9OCFHmaNrzAbbid3P190dbtF1wVXX2cThURD9eGH_sixBZptsmcT3W-3s7KLOKgM0VrboTN0tg8ybcBxxRlgGCskUfpN_S9Meb4OCMJA4FzffbCo6sLlzVjJt9pKVVvMtKOy82Ue7wzH4VmGHhFa72iA0DplQhIN6ZsHRQ5amXw21Qeuv1iyeo1rgdBa_2PtiAHJGVAce1ibhKM_AA-p6usyd_GZcx0gxQWawaM_61FOcKWE5XqtPPHxDoQLmEQdhQS1mk0JC5P68PE-Wnnajpa7YczHxkirBMnBuUJkgFWc98iQft5YhEDdtBbmcasXcRs4JLVH7gpSS7VSv5ZkhB-BziSr4lJ_2QLhYje7vKYxuzHw_ETV7y0]--></g></svg>